<?xml version="1.0" encoding="UTF-8" standalone="no"?>
<!-- Created with Inkscape (http://www.inkscape.org/) -->

<svg
   width="343.00012"
   height="343"
   viewBox="0 0 90.752115 90.752082"
   version="1.1"
   id="svg1"
   xml:space="preserve"
   xmlns="http://www.w3.org/2000/svg"
   xmlns:svg="http://www.w3.org/2000/svg"><defs
     id="defs1" /><g
     id="layer1"
     transform="translate(-1.589663,-4.004142)"><circle
       id="path4"
       style="fill:#8c8c8c;fill-opacity:1;stroke:#000000;stroke-width:0.264583"
       cx="52.27623"
       cy="53.291306"
       r="0.067603335" /><g
       id="g117653"
       transform="translate(-77.653043,-90.848985)"><path
         style="fill:#f6f3f9"
         d="M 79.242706,140.22917 V 94.853127 h 45.376044 45.37604 v 45.376043 45.37604 H 124.61875 79.242706 Z"
         id="path117660" /><path
         style="fill:#d4c2ed"
         d="M 79.242706,140.22917 V 94.853127 h 45.376044 45.37604 v 45.376043 45.37604 H 124.61875 79.242706 Z m 43.776494,4.62566 c -0.0134,-5.74584 -0.26627,-7.20592 -1.77164,-10.23068 -1.63362,-3.28245 -4.70883,-5.94971 -9.19913,-7.97881 -5.05983,-2.28646 -13.50763,-3.93501 -15.286353,-2.98307 -0.68618,0.36724 -1.071694,1.52998 -1.360184,4.10245 -0.621076,5.53813 1.699228,11.94358 5.545107,15.30786 2.75505,2.41005 6.79833,4.24551 11.4194,5.18388 3.05856,0.62108 3.52903,0.48964 3.4988,-0.9775 -0.0496,-2.40903 -3.55041,-7.88944 -7.85236,-12.29274 -1.42065,-1.45411 -2.53304,-2.6938 -2.47199,-2.75485 0.15574,-0.15574 1.60328,0.61525 3.44358,1.8341 5.71619,3.78589 9.46487,9.17416 10.08649,14.49807 l 0.16991,1.45521 1.89521,-0.005 1.89521,-0.005 z"
         id="path117659" /><path
         style="fill:#d0b6ef"
         d="M 79.242706,140.22917 V 94.853127 h 45.376044 45.37604 v 45.376043 45.37604 H 124.61875 79.242706 Z m 46.862374,34.82383 1.02721,-1.0272 5e-5,-14.91394 c 5e-5,-13.60477 0.0459,-15.19265 0.52278,-18.08894 0.2875,-1.74625 0.77219,-4.06797 1.07708,-5.15938 0.67986,-2.43361 3.06386,-8.14069 3.70255,-8.86354 0.25715,-0.29104 0.83989,-1.16579 1.29498,-1.9439 1.85095,-3.16473 8.74839,-10.41349 8.74839,-9.19399 0,0.0588 -0.7468,1.21966 -1.65956,2.57969 -2.00174,2.98265 -2.63438,4.02402 -3.91326,6.44153 -0.53887,1.01865 -1.23335,2.32834 -1.5433,2.91042 -2.06651,3.88094 -4.52554,10.92408 -4.52554,12.96201 0,1.14967 0.0951,1.41852 0.59531,1.68218 0.69337,0.36551 1.18579,0.24061 4.37622,-1.11005 6.18567,-2.61867 10.42831,-6.35788 12.95471,-11.41747 3.22344,-6.45557 4.63122,-14.85902 3.7613,-22.45227 -0.30388,-2.65239 -0.47258,-3.07874 -1.47924,-3.73833 -0.64886,-0.42515 -0.88933,-0.43681 -2.59043,-0.12562 -5.54648,1.01465 -11.97477,4.1318 -16.27884,7.89378 -3.36079,2.93751 -6.22027,7.58532 -7.42734,12.07244 -1.0856,4.03559 -1.31838,6.14184 -1.34509,12.17083 l -0.0258,5.82083 -0.47001,-2.24895 c -1.32644,-6.34685 -4.89909,-10.32788 -11.78946,-13.13705 -2.84945,-1.16171 -7.63771,-2.3872 -10.81491,-2.76792 -3.807525,-0.45626 -4.419385,0.008 -4.925294,3.73413 -0.755205,5.56282 0.985965,11.17427 4.683424,15.09377 2.7415,2.90613 5.86238,4.53058 11.42843,5.94862 3.08098,0.78493 3.77992,0.80729 4.3836,0.14024 0.44288,-0.48939 0.4428,-0.57842 -0.002,-1.91823 -1.03577,-3.12167 -3.89078,-7.35919 -7.48614,-11.11124 -1.5081,-1.57382 -2.63267,-2.86149 -2.49906,-2.86149 0.13361,0 0.9503,0.42546 1.81486,0.94547 6.43919,3.87295 10.56103,9.45939 11.35709,15.39255 l 0.18638,1.38906 h 2.09183 2.09184 v 12.96459 12.96458 h 0.82488 c 0.60541,0 1.09817,-0.2733 1.85208,-1.02721 z"
         id="path117658" /><path
         style="fill:#b394d8"
         d="M 79.242706,140.22917 V 94.853127 h 45.376044 45.37604 v 45.376043 45.37604 H 124.61875 79.242706 Z m 46.328934,35.43056 c 0.37858,-0.19042 0.91436,-0.67973 1.19063,-1.08735 0.47608,-0.70243 0.50955,-1.59766 0.64095,-17.1453 l 0.13865,-16.40416 0.84557,-3.24768 c 1.55222,-5.96176 3.61687,-10.30728 7.10214,-14.94809 1.68201,-2.23967 6.3769,-6.97803 6.6467,-6.70823 0.0833,0.0833 -0.31715,0.77966 -0.88986,1.54751 -2.43755,3.26806 -5.64313,8.99539 -7.65103,13.66992 -1.39874,3.25634 -3.02352,8.46958 -3.02352,9.70119 0,2.17281 1.6593,2.18003 6.18892,0.0269 3.65787,-1.73872 5.68263,-3.09096 7.87611,-5.26007 5.84509,-5.78019 9.08512,-16.47495 8.18437,-27.01517 -0.15894,-1.85989 -0.28898,-3.48506 -0.28898,-3.61148 0,-0.12643 -0.30824,-0.5962 -0.68498,-1.04393 -0.60565,-0.71977 -0.84679,-0.81405 -2.08226,-0.81405 -3.13088,0 -10.68033,2.96519 -14.76232,5.79817 -4.66197,3.2355 -7.74974,7.16114 -9.69501,12.32579 -1.60085,4.25021 -2.28593,9.43696 -2.09371,15.85159 0.0768,2.56468 0.0388,3.61373 -0.10652,2.93383 -0.89779,-4.20155 -1.68415,-6.08421 -3.50391,-8.38893 -2.96451,-3.75453 -9.93603,-6.96249 -18.00358,-8.28439 -3.332509,-0.54605 -4.200712,-0.50878 -5.043906,0.21651 -1.29004,1.10964 -1.770324,5.31909 -1.062589,9.31306 1.033622,5.83304 4.309534,10.25573 9.560465,12.90722 1.59797,0.8069 5.70848,2.15305 7.93625,2.59903 2.87664,0.57588 3.66363,-0.0585 2.89286,-2.33206 -1.11148,-3.27849 -4.0889,-7.59723 -7.84832,-11.38396 -1.3387,-1.34843 -2.31514,-2.45169 -2.16986,-2.45169 0.39339,0 3.21204,1.74053 4.79622,2.96169 1.92075,1.4806 4.42597,4.21389 5.75824,6.28246 1.25194,1.94383 2.51085,5.31306 2.51085,6.7198 0,1.68924 0.10229,1.76313 2.44071,1.76313 h 2.11952 l -0.0679,12.89844 c -0.0373,7.09414 -0.0513,12.99 -0.0312,13.10192 0.0449,0.24907 1.24611,-0.0218 2.18022,-0.49167 z"
         id="path117657" /><path
         style="fill:#8b64c0"
         d="M 79.242706,140.22917 V 94.853127 h 45.376044 45.37604 v 45.376043 45.37604 H 124.61875 79.242706 Z m 46.458674,35.46257 c 1.61953,-1.06115 1.54831,-0.31701 1.72156,-17.98783 l 0.15836,-16.15183 0.68185,-2.77812 c 1.6554,-6.74468 4.02323,-11.76572 7.79829,-16.53646 1.50828,-1.90609 5.35733,-5.77775 5.55124,-5.58385 0.0599,0.0599 -0.41548,0.86457 -1.05646,1.78808 -5.03671,7.25675 -9.98435,18.43367 -9.98435,22.55504 0,1.13893 0.58728,2.01052 1.35468,2.01052 0.69086,0 2.56455,-0.67048 4.92489,-1.76234 7.20244,-3.33174 11.98078,-8.83025 14.44857,-16.6262 1.29704,-4.09746 1.62254,-6.67715 1.61916,-12.83229 -0.003,-4.9436 -0.0769,-6.11789 -0.43756,-6.92473 -0.62769,-1.4043 -1.53252,-1.9133 -3.06648,-1.72503 -2.19203,0.26903 -6.56536,1.67863 -9.38115,3.0237 -6.76957,3.23376 -11.1557,7.32683 -13.82587,12.9021 -2.2202,4.63573 -3.02295,8.87764 -3.05429,16.13958 L 123.1344,139.7 122.64,137.81423 c -1.96452,-7.4931 -8.69045,-12.19727 -20.38092,-14.2546 -5.180229,-0.91164 -6.311281,-0.48928 -6.841367,2.5547 -1.041539,5.98096 0.664468,12.06879 4.555184,16.25502 2.707413,2.91306 6.307973,4.73975 12.004393,6.09029 2.85375,0.67658 2.99613,0.68609 3.66929,0.24502 0.61655,-0.40398 0.68328,-0.58603 0.55778,-1.52174 -0.3317,-2.47295 -3.62415,-7.65466 -7.50322,-11.80866 -2.55434,-2.73537 -2.55006,-2.888 0.0341,-1.21349 5.57189,3.61054 9.65513,9.3897 10.11519,14.31641 l 0.15631,1.67386 h 2.0784 2.07841 v 13.1315 13.13149 l 0.95403,-0.15482 c 0.52471,-0.0851 1.23743,-0.34051 1.58381,-0.56747 z"
         id="path117656" /><path
         style="fill:#7c48d0"
         d="M 79.242706,140.22917 V 94.853127 h 45.376044 45.37604 v 45.376043 45.37604 H 124.61875 79.242706 Z m 46.306214,35.62268 c 0.50705,-0.27112 1.16004,-0.8962 1.45108,-1.38906 0.50891,-0.86182 0.53524,-1.52406 0.68794,-17.30029 0.14996,-15.49363 0.18974,-16.52979 0.71671,-18.66733 1.98013,-8.032 5.81163,-14.80595 11.44051,-20.22642 1.75497,-1.69 1.77758,-1.62533 0.23124,0.66146 -4.46954,6.60972 -7.81533,13.75712 -9.26953,19.80189 -0.59338,2.46656 -0.48974,3.56692 0.39028,4.14353 0.77026,0.50469 2.32155,0.0947 5.78093,-1.52799 9.84167,-4.6163 14.80805,-12.56255 16.13283,-25.81263 0.24467,-2.44704 0.24694,-4.00729 0.01,-6.76937 -0.41722,-4.86119 -0.8985,-5.71043 -3.23621,-5.71043 -2.49381,0 -8.41505,1.96699 -12.12198,4.02684 -6.67083,3.7068 -11.01486,8.82617 -13.08463,15.42003 -1.35559,4.31867 -1.61989,6.25238 -1.57309,11.50938 l 0.0436,4.89479 -0.60986,-1.85208 c -0.94901,-2.88204 -1.8955,-4.50002 -3.6814,-6.29318 -3.68025,-3.69518 -10.25877,-6.49338 -17.88873,-7.60903 -5.102898,-0.74614 -6.050583,0.49049 -5.78687,7.5513 0.106018,2.83858 0.245271,3.74446 0.795962,5.17799 1.822892,4.74523 4.245048,7.68083 8.254538,10.00429 2.26849,1.31457 8.4574,3.20717 10.48764,3.20717 0.79564,0 1.11833,-0.14508 1.45059,-0.65218 0.3948,-0.60254 0.39234,-0.75857 -0.0324,-2.05052 -1.01877,-3.09876 -4.13389,-7.76284 -7.53156,-11.27656 -1.17176,-1.21178 -1.97739,-2.11272 -1.79029,-2.00209 3.63361,2.1485 7.29096,5.42819 9.11762,8.17614 1.42278,2.14037 2.6373,5.19898 2.86293,7.2099 l 0.18554,1.65364 h 2.09069 2.09069 v 13.09688 13.09687 h 0.73173 c 0.40245,0 1.14659,-0.22182 1.65365,-0.49294 z"
         id="path117655" /><path
         style="fill:#7b48ce"
         d="m 80.081261,179.55308 c -0.247751,-0.15706 -0.100758,-0.27345 0.496093,-0.39282 1.196384,-0.23928 1.311186,-0.21938 1.311186,0.22724 0,0.43739 -1.204443,0.54774 -1.807279,0.16558 z m 9.810924,-0.0415 c -0.516786,-0.20773 -0.595312,-0.43236 -0.595312,-1.70302 v -1.46374 h 0.934345 c 0.629531,0 0.98978,0.14446 1.104268,0.44281 0.216802,0.56498 1.056124,1.40928 1.40097,1.40928 0.145521,0 0.264584,0.16885 0.264584,0.37523 0,0.20638 0.07227,0.56357 0.160599,0.79375 0.134568,0.35068 -0.06914,0.4158 -1.256771,0.40175 -0.779554,-0.009 -1.685261,-0.12445 -2.012683,-0.25606 z m 4.034896,0.008 c -0.08994,-0.14552 0.08163,-0.26458 0.38126,-0.26458 0.29963,0 0.544782,0.11906 0.544782,0.26458 0,0.14552 -0.171567,0.26459 -0.38126,0.26459 -0.209693,0 -0.454845,-0.11907 -0.544782,-0.26459 z m 26.127609,-0.0801 c 0.5457,-0.15279 0.99218,-0.38861 0.99218,-0.52403 0,-0.13543 -0.17478,-0.17916 -0.3884,-0.0972 -0.21362,0.082 -0.45877,0.0352 -0.54478,-0.10398 -0.24703,-0.3997 -0.9189,-0.29453 -0.9189,0.14384 0,0.28664 -0.29398,0.39688 -1.05833,0.39688 -0.94398,0 -1.05834,-0.0694 -1.05834,-0.64206 0,-0.389 -0.18249,-0.68975 -0.46302,-0.76306 -0.25466,-0.0666 1.11456,-0.13481 3.04271,-0.15169 l 3.50573,-0.0307 v -0.66146 c 0,-0.5314 0.13172,-0.66146 0.66996,-0.66146 0.99276,0 2.37678,-0.65347 2.86734,-1.35384 0.2373,-0.33879 0.43145,-0.49424 0.43145,-0.34545 0,0.1488 -0.14288,0.41342 -0.3175,0.58804 -0.24695,0.24695 -0.21755,0.3175 0.13229,0.3175 0.24739,0 0.44979,0.10581 0.44979,0.23514 0,0.12933 0.44649,0.32747 0.99219,0.44032 0.59436,0.12291 0.80654,0.24858 0.52917,0.31343 -0.25466,0.0595 -0.46302,0.26938 -0.46302,0.46632 0,0.19694 0.20836,0.40848 0.46302,0.47008 0.25466,0.0616 -0.11088,0.10009 -0.81232,0.0855 -0.95819,-0.0199 -1.33979,0.0887 -1.5345,0.43657 -0.30885,0.55179 -1.02662,0.61782 -1.02662,0.0945 0,-0.20271 -0.17859,-0.4371 -0.39688,-0.52086 -0.56663,-0.21744 -0.49016,0.26698 0.14195,0.89908 0.56867,0.56867 0.45865,1.18347 -0.16871,0.94273 -0.20356,-0.0781 -0.37011,-0.0267 -0.37011,0.11426 0,0.15149 -1.16291,0.24261 -2.84427,0.22284 -2.47416,-0.0291 -2.71516,-0.0696 -1.85208,-0.31125 z m 2.50802,-0.34433 c -0.0879,-0.0879 -0.31612,-0.0973 -0.50711,-0.0209 -0.21107,0.0845 -0.14838,0.14716 0.15985,0.15985 0.27891,0.0115 0.43518,-0.051 0.34726,-0.13896 z m 2.18833,-2.2214 c 0,-0.14552 -0.20836,-0.26276 -0.46302,-0.26053 -0.3957,0.003 -0.40532,0.0413 -0.0662,0.26053 0.49933,0.32269 0.52917,0.32269 0.52917,0 z m 1.09208,-0.46302 c 0.32911,-0.41965 0.31975,-0.429 -0.0999,-0.0999 -0.25466,0.19972 -0.46302,0.40808 -0.46302,0.46302 0,0.21777 0.21727,0.0776 0.56291,-0.36312 z m 1.88448,3.18671 c -0.68589,-0.13211 -0.79728,-0.90378 -0.20181,-1.39798 0.52704,-0.4374 1.194,-0.14801 1.194,0.51807 0,0.39345 0.17306,0.53747 0.64584,0.53747 0.35522,0 0.71943,0.11906 0.80937,0.26458 0.16356,0.26466 -1.24492,0.30947 -2.4474,0.0779 z m 8.00365,-0.0779 c 0.0899,-0.14552 0.49979,-0.26458 0.9108,-0.26458 0.52476,0 0.78848,-0.15757 0.88565,-0.52917 0.19726,-0.75432 1.77542,-0.7626 1.77542,-0.009 0,0.28593 -0.2303,0.64311 -0.51177,0.79375 -0.66758,0.35728 -3.28007,0.36523 -3.0601,0.009 z m 7.0776,0.0837 c -0.47826,-0.0968 -0.59531,-0.29891 -0.59531,-1.02809 0,-0.93064 -0.353,-1.21919 -0.62485,-0.51077 -0.0838,0.21829 -0.40038,0.39688 -0.70359,0.39688 -0.49882,0 -0.54369,-0.13221 -0.47133,-1.38906 0.0697,-1.21013 0.15667,-1.39996 0.67529,-1.47361 0.4627,-0.0657 0.59531,-0.25727 0.59531,-0.8599 0,-0.70507 -0.0814,-0.77535 -0.89773,-0.77535 -0.55391,0 -0.95606,0.152 -1.05003,0.39688 -0.0838,0.21828 -0.33508,0.39687 -0.55848,0.39687 -0.29565,0 -0.38791,0.23401 -0.33904,0.8599 0.0594,0.76112 -0.0164,0.86951 -0.66045,0.94361 -0.67646,0.0778 -0.7276,0.0157 -0.7276,-0.88466 0,-0.74587 0.12159,-1.00018 0.52917,-1.10677 0.29104,-0.0761 0.52916,-0.24355 0.52916,-0.3721 0,-0.12855 -0.23812,-0.23373 -0.52916,-0.23373 -0.69779,0 -0.72577,-1.05646 -0.0328,-1.23768 0.65497,-0.17128 1.36439,-1.44741 0.89268,-1.60579 -0.1819,-0.0611 -0.33073,-0.51784 -0.33073,-1.01503 0,-0.82805 -0.0667,-0.904 -0.79375,-0.904 -0.53639,0 -0.79375,0.13137 -0.79375,0.40518 0,0.22285 -0.20836,0.48176 -0.46302,0.57536 -0.25466,0.0936 -0.55823,0.32799 -0.6746,0.52086 -0.11638,0.19288 -0.38427,0.35069 -0.59532,0.35069 -0.50588,0 -0.49539,-0.76751 0.0131,-0.96266 0.21828,-0.0838 0.39688,-0.31223 0.39688,-0.50771 0,-0.19548 0.20836,-0.48031 0.46302,-0.63296 0.44097,-0.26432 0.44097,-0.29468 0,-0.63763 -0.63814,-0.49628 -0.61079,-1.76786 0.0417,-1.93848 0.27759,-0.0726 0.55719,-0.32934 0.62133,-0.57055 0.18367,-0.6907 2.21663,-1.62918 3.52918,-1.62918 0.64109,0 1.16562,0.11906 1.16562,0.26458 0,0.14552 0.23812,0.26459 0.52917,0.26459 0.29104,0 0.52916,0.11906 0.52916,0.26458 0,0.49123 0.73086,0.26906 0.87042,-0.26458 0.0761,-0.29105 0.32812,-0.52917 0.56002,-0.52917 0.24526,0 0.42165,0.22137 0.42165,0.52917 0,0.35277 0.17638,0.52916 0.52916,0.52916 0.29104,0 0.52917,0.11907 0.52917,0.26459 0,0.14552 0.17859,0.26458 0.39687,0.26458 0.21829,0 0.39688,0.11906 0.39688,0.26458 0,0.49123 0.73086,0.26907 0.87041,-0.26458 0.0761,-0.29104 0.32812,-0.52917 0.56003,-0.52917 0.24525,0 0.42164,0.22137 0.42164,0.52917 0,0.35278 0.17639,0.52917 0.52917,0.52917 0.29398,0 0.52917,0.17639 0.52917,0.39687 0,0.21828 0.17859,0.39688 0.39687,0.39688 0.27718,0 0.39688,0.27928 0.39688,0.92604 0,0.74965 0.10079,0.92604 0.52916,0.92604 0.64202,0 0.68227,0.57871 0.10186,1.46452 -0.37404,0.57086 -0.62139,0.65215 -1.98437,0.65215 -1.20767,0 -1.55707,-0.0891 -1.55707,-0.39688 0,-0.22049 -0.23519,-0.39687 -0.52917,-0.39687 -0.35278,0 -0.52916,-0.17639 -0.52916,-0.52917 0,-0.29104 -0.11907,-0.52917 -0.26459,-0.52917 -0.14552,0 -0.26458,0.59532 -0.26458,1.32292 v 1.32292 h 0.92604 0.92604 v 1.85208 1.85208 h 2.11667 c 1.76036,0 2.11667,-0.071 2.11667,-0.42164 0,-0.23191 0.23812,-0.48392 0.52916,-0.56003 0.29104,-0.0761 0.52917,-0.24355 0.52917,-0.3721 0,-0.12855 -0.23813,-0.23373 -0.52917,-0.23373 -0.6724,0 -0.72567,-1.00272 -0.0661,-1.24512 0.25466,-0.0936 0.55823,-0.32799 0.6746,-0.52086 0.11637,-0.19288 0.38426,-0.35068 0.59531,-0.35068 0.24998,0 0.38373,-0.27667 0.38373,-0.79375 0,-0.61737 -0.11759,-0.79375 -0.52916,-0.79375 -0.36067,0 -0.52917,-0.17639 -0.52917,-0.55394 0,-0.33142 0.21256,-0.60952 0.52917,-0.69232 0.66977,-0.17515 0.68088,-0.50444 0.0228,-0.67652 -0.35522,-0.0929 -0.54951,0.0326 -0.65097,0.42061 -0.0795,0.30416 -0.22446,0.47318 -0.32204,0.37559 -0.27903,-0.27903 0.66671,-2.04842 1.09489,-2.04842 0.30925,0 0.38446,-0.49175 0.38446,-2.51355 0,-2.33715 -0.0371,-2.51354 -0.52916,-2.51354 -0.29105,0 -0.52917,-0.15485 -0.52917,-0.34412 0,-0.48676 -0.62228,-1.76801 -0.8599,-1.77048 -0.45464,-0.005 -0.16693,-1.11818 0.32197,-1.24603 0.63405,-0.1658 0.88337,-0.85529 0.64816,-1.79245 -0.14136,-0.56322 -0.0706,-0.72765 0.36172,-0.84071 0.2956,-0.0773 0.59685,-0.36766 0.66944,-0.64525 0.0726,-0.27759 0.32173,-0.50471 0.55363,-0.50471 0.59164,0 0.61459,2.85299 0.0248,3.07932 -0.50463,0.19365 -0.51733,0.62485 -0.0184,0.62485 0.20816,0 0.43007,0.26789 0.49313,0.59531 l 0.11467,0.59531 0.036,-0.59531 c 0.0289,-0.47706 0.1937,-0.59531 0.82978,-0.59531 0.61736,0 0.79375,0.11759 0.79375,0.52917 0,0.34548 0.17639,0.52916 0.50814,0.52916 0.35211,0 0.56296,0.24956 0.68664,0.81267 0.0982,0.44697 0.10763,0.88353 0.021,0.97014 -0.0866,0.0866 -0.15731,-0.0707 -0.15711,-0.34965 3.2e-4,-0.44933 -0.1655,-0.49679 -1.45521,-0.41648 l -1.45556,0.0906 v 1.6953 1.69531 h 0.79375 c 0.60608,0 0.79375,-0.12 0.79375,-0.50753 0,-0.95112 0.30968,-1.34455 1.05833,-1.34455 0.41115,0 0.80448,-0.17551 0.88943,-0.39688 0.0838,-0.21828 0.27509,-0.39687 0.42518,-0.39687 0.15009,0 0.27289,0.17859 0.27289,0.39687 0,0.29476 0.31045,0.39688 1.2066,0.39688 h 1.20659 l -0.0821,0.99218 -0.0821,0.99219 -1.78594,0.0782 -1.78594,0.0782 v 0.91395 c 0,0.86813 0.0464,0.91396 0.92604,0.91396 0.64676,0 0.92605,0.11969 0.92605,0.39687 0,0.21828 0.17859,0.39688 0.39687,0.39688 0.22049,0 0.39688,0.23518 0.39688,0.52916 0,0.47877 -0.17639,0.52917 -1.85209,0.52917 h -1.85208 v 1.86039 c 0,1.4096 -0.0962,1.89729 -0.39688,2.01268 -0.22622,0.0868 -0.39687,0.48142 -0.39687,0.91774 0,1.04837 0.47585,0.97068 0.57855,-0.0945 0.0729,-0.7561 0.1867,-0.8699 0.9428,-0.9428 0.73496,-0.0709 0.86049,-0.18619 0.86395,-0.79375 0.006,-1.12656 0.34409,-1.45411 1.28581,-1.24727 0.84465,0.18552 1.20854,-0.25974 0.45012,-0.55077 -0.31639,-0.12141 -0.30698,-0.22595 0.0588,-0.65315 0.73007,-0.85265 1.37622,-0.65666 1.37622,0.41743 0,1.00314 0.38187,1.2533 0.60583,0.39688 0.0828,-0.31661 0.36089,-0.52917 0.69232,-0.52917 0.37754,0 0.55393,0.1685 0.55393,0.52917 0,0.29104 0.11906,0.52916 0.26459,0.52916 0.14552,0 0.26458,-0.59531 0.26458,-1.32291 0,-0.99954 -0.097,-1.32292 -0.39688,-1.32292 -0.21828,0 -0.39687,-0.18233 -0.39687,-0.40518 0,-0.22285 0.17859,-0.47371 0.39687,-0.55747 0.49547,-0.19013 0.52445,-0.88943 0.0369,-0.88943 -0.23609,0 -0.41551,-0.46852 -0.52122,-1.36105 -0.18815,-1.58864 -0.0967,-1.81395 0.73625,-1.81395 0.33965,0 0.68607,-0.1786 0.76984,-0.39688 0.0838,-0.21828 0.38027,-0.39687 0.6589,-0.39687 0.2841,0 0.56739,-0.23243 0.645,-0.52917 0.0761,-0.29104 0.31538,-0.52917 0.53171,-0.52917 0.21634,0 0.46187,-0.17859 0.54564,-0.39687 0.21624,-0.56351 1.22528,-0.50948 1.23528,0.0661 0.008,0.44098 0.0209,0.44098 0.27773,0 0.14833,-0.25466 0.50189,-0.46302 0.7857,-0.46302 0.28381,0 0.51602,-0.17156 0.51602,-0.38126 0,-0.20969 0.11906,-0.45484 0.26459,-0.54478 0.17275,-0.10677 0.26458,1.54066 0.26458,4.74689 v 4.9104 h -0.63315 c -0.34823,0 -0.70169,0.1786 -0.78545,0.39688 -0.0838,0.21828 -0.33462,0.39687 -0.55747,0.39687 -0.22285,0 -0.40518,0.1786 -0.40518,0.39688 0,0.29398 0.30868,0.39687 1.19062,0.39687 h 1.19063 v 3.83646 3.83646 h -0.6447 c -0.53395,0 -0.65893,0.14771 -0.7276,0.8599 -0.0635,0.65906 -0.22195,0.87964 -0.67822,0.94444 -0.32742,0.0465 -0.59531,-0.0428 -0.59531,-0.19844 0,-0.15564 -0.1786,-0.28298 -0.39688,-0.28298 -0.21828,0 -0.39687,-0.11907 -0.39687,-0.26459 0,-0.14552 -0.58143,-0.26458 -1.29206,-0.26458 -1.03332,0 -1.31762,0.0978 -1.4197,0.48811 -0.14962,0.57215 -1.74009,0.83097 -5.09345,0.82889 -2.61941,-0.002 -3.30729,-0.1719 -3.30729,-0.81869 0,-0.42065 -0.20332,-0.49831 -1.30452,-0.49831 -1.15139,0 -1.31444,0.0699 -1.38906,0.59531 -0.0768,0.54092 -0.24774,0.60246 -1.87049,0.67355 -1.11613,0.0489 -1.78593,-0.0255 -1.78593,-0.19844 0,-0.15217 -0.29766,-0.27667 -0.66146,-0.27667 -0.41158,0 -0.66146,-0.14993 -0.66146,-0.39688 0,-0.26249 -0.26254,-0.39687 -0.77535,-0.39687 -0.60262,0 -0.79418,0.13262 -0.85989,0.59531 -0.074,0.52088 -0.24997,0.5998 -1.40747,0.63122 -0.7276,0.0197 -1.59081,-0.0183 -1.91823,-0.0846 z m 14.78655,-0.97439 c 0.0347,-0.54287 0.0404,-0.54169 0.1507,0.0308 0.0631,0.32742 0.24032,0.59531 0.39391,0.59531 0.17166,0 0.21554,-0.31859 0.11389,-0.82682 -0.0909,-0.45476 -0.16536,-1.22866 -0.16536,-1.7198 0,-0.81021 -0.0715,-0.89296 -0.77204,-0.89296 -0.76889,0 -0.7724,0.007 -0.8599,1.80344 -0.0851,1.74765 -0.0694,1.7999 0.50746,1.68895 0.37921,-0.0729 0.60839,-0.31941 0.63134,-0.67897 z m -6.91519,-0.16759 c 0,-0.52917 -0.1323,-0.79375 -0.39688,-0.79375 -0.21828,0 -0.39687,0.14182 -0.39687,0.31515 0,0.17334 -0.17481,0.084 -0.38846,-0.19844 -0.36404,-0.48129 -0.38899,-0.4512 -0.39688,0.4786 -0.008,0.92791 0.043,0.99219 0.78534,0.99219 0.70555,0 0.79375,-0.0882 0.79375,-0.79375 z m 14.81666,-1.45521 c 0,-0.21828 -0.11906,-0.39687 -0.26458,-0.39687 -0.14552,0 -0.26458,0.17859 -0.26458,0.39687 0,0.21828 0.11906,0.39688 0.26458,0.39688 0.14552,0 0.26458,-0.1786 0.26458,-0.39688 z m -1.77542,-1.98437 c 0.0761,-0.29105 0.32812,-0.52917 0.56003,-0.52917 0.2319,0 0.42164,-0.11906 0.42164,-0.26458 0,-0.41599 -0.72014,-0.30888 -0.88943,0.13229 -0.0956,0.2491 -0.50018,0.39687 -1.08664,0.39687 h -0.93434 v -1.32291 c 0,-1.29352 -0.0176,-1.32292 -0.79375,-1.32292 h -0.79375 v 1.71979 1.71979 h 1.68893 c 1.46642,0 1.70716,-0.0697 1.82731,-0.52916 z m 5.74417,-1.7198 c 0,-0.21828 -0.17859,-0.39687 -0.39687,-0.39687 -0.21828,0 -0.39688,0.17859 -0.39688,0.39687 0,0.21829 0.1786,0.39688 0.39688,0.39688 0.21828,0 0.39687,-0.17859 0.39687,-0.39688 z m -27.25208,-0.92604 c 0,-0.14552 -0.11906,-0.26458 -0.26458,-0.26458 -0.14552,0 -0.26459,0.11906 -0.26459,0.26458 0,0.14552 0.11907,0.26459 0.26459,0.26459 0.14552,0 0.26458,-0.11907 0.26458,-0.26459 z m 26.19375,0 c 0,-0.14552 -0.17859,-0.26458 -0.39688,-0.26458 -0.21828,0 -0.39687,0.11906 -0.39687,0.26458 0,0.14552 0.17859,0.26459 0.39687,0.26459 0.21829,0 0.39688,-0.11907 0.39688,-0.26459 z m -12.17083,-4.63021 c 0,-0.21828 -0.11907,-0.39687 -0.26459,-0.39687 -0.14552,0 -0.26458,0.17859 -0.26458,0.39687 0,0.21829 0.11906,0.39688 0.26458,0.39688 0.14552,0 0.26459,-0.17859 0.26459,-0.39688 z m 10.31875,0 c 0,-0.21828 -0.1786,-0.39687 -0.39688,-0.39687 -0.21828,0 -0.39687,0.17859 -0.39687,0.39687 0,0.21829 0.17859,0.39688 0.39687,0.39688 0.21828,0 0.39688,-0.17859 0.39688,-0.39688 z m -1.05834,-0.92604 c 0,-0.14552 -0.11906,-0.26458 -0.26458,-0.26458 -0.14552,0 -0.26458,0.11906 -0.26458,0.26458 0,0.14552 0.11906,0.26459 0.26458,0.26459 0.14552,0 0.26458,-0.11907 0.26458,-0.26459 z m -0.66146,12.7 c 0.0899,-0.14552 0.34212,-0.26458 0.5604,-0.26458 0.21828,0 0.32329,0.11906 0.23335,0.26458 -0.0899,0.14552 -0.34211,0.26459 -0.56039,0.26459 -0.21828,0 -0.32329,-0.11907 -0.23336,-0.26459 z m -57.79057,-0.6835 c 0.0127,-0.30823 0.0754,-0.37092 0.15986,-0.15986 0.0764,0.191 0.067,0.4192 -0.0209,0.50712 -0.0879,0.0879 -0.15045,-0.0684 -0.13897,-0.34726 z m -9.873528,-1.09113 c 0.329118,-0.0633 0.805368,-0.0609 1.058333,0.005 0.252965,0.0662 -0.01631,0.11801 -0.598397,0.11507 -0.582083,-0.003 -0.789055,-0.0571 -0.459936,-0.12041 z m 7.408338,0 c 0.32911,-0.0633 0.80536,-0.0609 1.05833,0.005 0.25296,0.0662 -0.0163,0.11801 -0.5984,0.11507 -0.58208,-0.003 -0.78905,-0.0571 -0.45993,-0.12041 z m 7.42178,0.006 c 0.191,-0.0764 0.4192,-0.067 0.50712,0.0209 0.0879,0.0879 -0.0683,0.15045 -0.34727,0.13896 -0.30822,-0.0127 -0.37092,-0.0754 -0.15985,-0.15985 z m -28.365013,-1.07603 c -0.111332,-0.47294 -0.315762,-0.85989 -0.454287,-0.85989 -0.138526,0 -0.32833,-0.19927 -0.421787,-0.44281 -0.365198,-0.95169 -1.120765,-1.40928 -2.327012,-1.40928 H 79.242706 V 163.5125 153.06146 h 1.338889 1.338888 l -0.08212,0.99219 c -0.07497,0.90582 -0.156967,0.9994 -0.942013,1.07509 -0.703228,0.0678 -0.859896,0.19643 -0.859896,0.70597 0,0.34268 -0.07197,0.81062 -0.159945,1.03986 -0.106901,0.27858 0.04665,0.49956 0.463021,0.66633 0.458843,0.18378 0.500981,0.25394 0.159945,0.26629 -0.377,0.0137 -0.463021,0.26254 -0.463021,1.33969 0,1.29351 0.01764,1.32291 0.79375,1.32291 h 0.79375 v -1.85208 -1.85208 h 0.926042 0.926042 v -2.62907 -2.62907 l -0.859896,-0.0829 -0.859896,-0.0829 -0.07823,-1.78594 c -0.07775,-1.77497 -0.08293,-1.78594 -0.843132,-1.78594 -0.665344,0 -0.775688,0.10927 -0.847807,0.83952 -0.0456,0.46174 -0.231737,0.88838 -0.413639,0.94809 -0.25122,0.0825 -0.330729,-0.5964 -0.330729,-2.82389 0,-1.77859 0.10411,-2.93247 0.264584,-2.93247 0.14552,0 0.264583,-0.65484 0.264583,-1.45521 v -1.4552 h 1.058333 c 0.582084,0 1.058334,-0.11907 1.058334,-0.26459 0,-0.14552 -0.238125,-0.26458 -0.529167,-0.26458 -0.466099,0 -0.529167,-0.17639 -0.529167,-1.47998 0,-1.25746 0.07956,-1.50078 0.529167,-1.61836 0.291042,-0.0761 0.529167,-0.31381 0.529167,-0.52822 0,-0.29157 0.283481,-0.37489 1.124479,-0.33049 2.146556,0.11332 2.27698,0.0637 2.464852,-0.93774 0.157956,-0.84198 0.255121,-0.92604 1.070323,-0.92604 0.628752,0 0.896596,-0.12104 0.896596,-0.40518 0,-0.22285 0.197699,-0.48105 0.439332,-0.57377 0.376869,-0.14462 0.358686,-0.19842 -0.127885,-0.37841 -0.31197,-0.11541 -0.510966,-0.36323 -0.442214,-0.55072 0.06875,-0.18748 -0.03526,-0.87528 -0.231141,-1.52844 -0.309988,-1.03364 -0.380506,-1.11079 -0.544115,-0.59531 -0.269982,0.85064 -1.548339,0.84789 -1.427484,-0.003 0.05366,-0.37784 0.297184,-0.62556 0.666612,-0.67812 0.50178,-0.0714 0.593014,-0.27211 0.661458,-1.45521 0.0674,-1.16512 0.1639,-1.38446 0.638893,-1.45225 0.656311,-0.0937 0.870133,0.6401 0.938836,3.22178 l 0.04313,1.62057 0.155311,-1.45521 c 0.150601,-1.41107 0.181391,-1.45772 1.015207,-1.53811 0.831397,-0.0802 0.859896,-0.12264 0.859896,-1.28155 0,-0.98603 0.09625,-1.2238 0.542638,-1.34053 0.411917,-0.10772 0.517402,-0.3089 0.43788,-0.83513 -0.05762,-0.38127 -0.05543,-0.54688 0.0049,-0.36803 0.133925,0.39729 2.532404,0.23396 2.671021,-0.18189 0.05053,-0.15158 0.300222,-0.27559 0.554884,-0.27559 0.603014,0 0.813545,-0.22718 0.636969,-0.68733 -0.08343,-0.21741 -0.514011,-0.371 -1.040103,-0.371 -0.794223,0 -0.901889,0.0839 -0.933766,0.7276 -0.03391,0.68483 -0.0431,0.69009 -0.156319,0.0894 -0.149971,-0.79574 -0.679804,-1.34355 -1.310105,-1.35455 -0.446505,-0.008 -0.443033,-0.0383 0.04725,-0.41555 0.291042,-0.22393 0.495984,-0.52805 0.455426,-0.67583 -0.04056,-0.14778 0.167802,-0.33186 0.463021,-0.40906 0.410316,-0.1073 0.536762,-0.35852 0.536762,-1.06641 0,-0.83595 0.05791,-0.90897 0.595312,-0.75052 0.327422,0.0965 1.309688,0.24531 2.182813,0.33061 0.873125,0.0853 1.715786,0.25587 1.87258,0.37903 0.156794,0.12315 1.287888,0.2669 2.513548,0.31945 1.22565,0.0525 2.0201,0.0463 1.76544,-0.0139 -0.25466,-0.0602 -0.46302,-0.31993 -0.46302,-0.5772 0,-0.39545 0.21472,-0.45856 1.38906,-0.40822 0.76398,0.0327 1.76299,0.0734 2.22001,0.0903 0.74588,0.0276 0.84206,0.12591 0.93947,0.96032 0.13656,1.16972 -0.0122,1.40429 -1.01789,1.60543 -0.63124,0.12625 -0.84917,0.0562 -0.99327,-0.31933 -0.15677,-0.40853 -0.22173,-0.42234 -0.4309,-0.0916 -0.56059,0.88644 -0.0417,1.33807 1.66383,1.44808 0.59976,0.0387 0.7276,-0.0618 0.7276,-0.57199 0,-0.75232 0.97903,-0.87455 1.24868,-0.1559 0.0956,0.25466 0.35971,0.60806 0.58701,0.78534 0.27735,0.2163 0.30449,0.32508 0.0825,0.33073 -0.1819,0.005 -0.33073,0.14136 -0.33073,0.30385 0,0.18594 0.22064,0.22546 0.59532,0.10662 0.32742,-0.10385 0.80367,-0.20278 1.05833,-0.21985 0.28854,-0.0193 0.46302,-0.24645 0.46302,-0.60271 0,-0.42862 0.20691,-0.61307 0.82682,-0.73705 1.16926,-0.23385 1.28985,-0.21333 1.28985,0.21952 0,0.23039 0.37172,0.45462 0.92604,0.55861 0.50932,0.0956 0.92604,0.27008 0.92604,0.38784 0,0.26179 1.56531,0.63113 1.77712,0.41932 0.0835,-0.0835 -0.13339,-0.26586 -0.48194,-0.40529 -0.49609,-0.19844 -0.22122,-0.25713 1.26561,-0.27026 1.38051,-0.0122 2.01634,-0.13379 2.3277,-0.44515 0.23561,-0.2356 0.48037,-0.37637 0.54392,-0.31282 0.0956,0.0956 0.16671,1.96616 0.13874,3.65161 -0.004,0.21828 0.0548,0.87313 0.12989,1.45521 0.0751,0.58208 0.0204,1.23311 -0.12155,1.44672 -0.21817,0.32839 -0.33665,0.29774 -0.76698,-0.19843 -0.52991,-0.611 -1.10834,-0.77917 -1.10834,-0.32225 0,0.14552 0.11903,0.26459 0.26452,0.26459 0.3076,0 2.97498,2.59404 3.26702,3.1772 0.1087,0.21707 0.48215,0.92089 0.82987,1.56404 l 0.63222,1.16936 -0.0494,-1.94015 c -0.0311,-1.22101 0.0588,-1.97658 0.24266,-2.03843 0.36571,-0.12304 0.63814,2.32108 0.62212,5.58127 l -0.0118,2.40858 -0.60556,-1.85208 c -0.95144,-2.90994 -1.89212,-4.50042 -3.7976,-6.4209 -0.97201,-0.97965 -1.73988,-1.87933 -1.70638,-1.99929 0.0335,-0.11996 -0.064,-0.14089 -0.21671,-0.0465 -0.15269,0.0944 -1.03403,-0.30614 -1.95854,-0.89002 -3.02886,-1.9129 -8.7987,-3.80153 -13.8866,-4.54548 -5.102901,-0.74614 -6.050586,0.49049 -5.786873,7.5513 0.106018,2.83858 0.245271,3.74446 0.795962,5.17799 1.822892,4.74523 4.245051,7.68083 8.254541,10.00429 2.26849,1.31457 8.4574,3.20717 10.48764,3.20717 0.79564,0 1.11833,-0.14508 1.45059,-0.65218 0.3948,-0.60254 0.39234,-0.75857 -0.0324,-2.05052 -1.01877,-3.09876 -4.13389,-7.76284 -7.53156,-11.27656 -1.17176,-1.21178 -1.97739,-2.11272 -1.79029,-2.00209 3.63361,2.1485 7.29096,5.42819 9.11762,8.17614 1.42278,2.14037 2.6373,5.19898 2.86293,7.2099 l 0.18554,1.65364 h -0.81973 c -0.45085,0 -0.81972,-0.1318 -0.81972,-0.29289 0,-0.16109 0.16874,-0.22814 0.37497,-0.149 0.49452,0.18977 0.6209,-0.23911 0.47808,-1.62242 -0.0907,-0.87813 -0.21668,-1.11893 -0.55143,-1.0536 -0.25448,0.0497 -0.44343,0.35624 -0.45693,0.7414 -0.0309,0.88095 -0.38099,1.84735 -0.6693,1.84735 -0.12855,0 -0.23373,-0.14288 -0.23373,-0.3175 0,-0.24695 -0.0705,-0.24695 -0.3175,0 -0.36349,0.36349 -3.54538,0.43826 -3.76161,0.0884 -0.0779,-0.12601 -0.47185,-0.17622 -0.87551,-0.11158 -0.5865,0.0939 -0.6542,0.0582 -0.33704,-0.17755 0.31785,-0.23632 0.23883,-0.27995 -0.39688,-0.21915 -0.59289,0.0567 -0.81514,0.22656 -0.8783,0.67123 -0.0834,0.58737 -0.13458,0.59483 -3.83646,0.55928 -2.06355,-0.0198 -3.48401,-0.0876 -3.15659,-0.15069 0.45584,-0.0878 0.59531,-0.29631 0.59531,-0.89001 0,-0.51281 0.13438,-0.77535 0.39687,-0.77535 0.22211,0 0.39688,0.23591 0.39688,0.53571 0,0.7559 1.11717,1.13391 2.34403,0.79313 0.52979,-0.14716 1.35395,-0.26822 1.83146,-0.26903 0.55097,-9.4e-4 0.92759,-0.15625 1.03074,-0.42506 0.17942,-0.46756 -0.39204,-0.96112 -0.89828,-0.77582 -0.17724,0.0649 -0.39262,0.004 -0.47863,-0.13507 -0.086,-0.13916 -0.37249,-0.25303 -0.63661,-0.25303 -0.26413,0 -1.031,-0.30783 -1.70418,-0.68408 -0.67317,-0.37624 -1.22395,-0.55739 -1.22395,-0.40254 0,0.49287 -1.39237,-0.27666 -2.38125,-1.31607 -0.50932,-0.53534 -1.20075,-1.05737 -1.53651,-1.16005 -0.33576,-0.10269 -0.719765,-0.47417 -0.853348,-0.82552 -0.133583,-0.35135 -0.424419,-0.63882 -0.646302,-0.63882 -0.221883,0 -0.403423,-0.17859 -0.403423,-0.39688 0,-0.21828 -0.228388,-0.39687 -0.507528,-0.39687 -0.857529,0 -1.344556,-0.29777 -1.344556,-0.82206 0,-0.27547 0.119063,-0.50086 0.264584,-0.50086 0.14552,0 0.264583,0.23813 0.264583,0.52917 0,0.55803 0.384937,0.712 0.661458,0.26458 0.08994,-0.14552 0.03743,-0.26458 -0.116677,-0.26458 -0.154109,0 -0.280198,-0.2311 -0.280198,-0.51355 0,-0.70525 -0.357077,-0.86563 -1.464687,-0.65784 -0.878546,0.16482 -0.932795,0.23058 -0.776643,0.94154 0.09233,0.42039 0.33712,1.10359 0.54397,1.51824 0.437057,0.8761 0.233051,2.41578 -0.320088,2.41578 -1.018799,0 0.350047,1.59332 1.439307,1.67533 0.662103,0.0499 0.715873,0.14768 0.790406,1.43804 0.07196,1.24588 0.02559,1.38454 -0.463021,1.38454 -0.54029,0 -0.542994,0.0652 -0.542994,13.09688 0,12.92048 -0.0071,13.09687 -0.529166,13.09687 -0.291042,0 -0.529167,-0.16502 -0.529167,-0.36673 0,-0.35197 -1.487769,-1.22077 -2.090507,-1.22077 -0.159909,0 -0.290743,0.1786 -0.290743,0.39688 0,0.22048 -0.235185,0.39687 -0.529167,0.39687 -0.359016,0 -0.529166,0.17639 -0.529166,0.54857 0,0.37969 -0.142545,0.52139 -0.463021,0.46029 -0.376687,-0.0718 -0.477609,-0.42078 -0.541256,-1.87149 -0.07814,-1.78116 -0.07913,-1.7832 -0.859896,-1.7832 -0.761604,0 -0.781661,0.0339 -0.781661,1.32292 v 1.32291 h -0.926041 c -0.685303,0 -0.926042,0.11384 -0.926042,0.43788 0,0.40746 -0.03362,0.40746 -0.483854,0 -0.554585,-0.50189 -1.368229,-0.58295 -1.368229,-0.13632 0,0.16586 0.208359,0.45973 0.46302,0.65305 0.428761,0.32547 0.418973,0.3521 -0.132291,0.35989 -0.327422,0.005 -0.595313,0.12748 -0.595313,0.273 0,0.14552 -0.348457,0.26459 -0.774349,0.26459 -0.522008,0 -0.80778,0.15088 -0.876933,0.46302 -0.06697,0.30228 -0.172854,0.16451 -0.305007,-0.39688 z m 3.49342,-3.43958 c -0.04904,-0.25466 -0.204971,-0.46302 -0.346506,-0.46302 -0.141535,0 -0.297462,0.20836 -0.346506,0.46302 -0.05577,0.28961 0.074,0.46302 0.346506,0.46302 0.27251,0 0.402281,-0.17341 0.346506,-0.46302 z m 2.167036,-4.17928 v -2.79021 l -1.785938,0.0782 -1.785937,0.0782 -0.0754,2.71198 -0.0754,2.71198 h 1.86134 1.861339 z m -2.910417,0.40897 c 0,-0.35278 0.176389,-0.52917 0.529167,-0.52917 0.352778,0 0.529167,0.17639 0.529167,0.52917 0,0.35277 -0.176389,0.52916 -0.529167,0.52916 -0.352778,0 -0.529167,-0.17639 -0.529167,-0.52916 z m 6.879167,1.60426 c 0,-0.67832 0.109193,-0.79054 0.859896,-0.8837 0.472942,-0.0587 0.05622,-0.12577 -0.926042,-0.14905 l -1.785937,-0.0423 v 0.92604 c 0,0.88195 0.0441,0.92605 0.926041,0.92605 0.848107,0 0.926042,-0.0654 0.926042,-0.77699 z m 1.5875,-2.13343 c 0,-0.70556 -0.08819,-0.79375 -0.79375,-0.79375 -0.705556,0 -0.79375,0.0882 -0.79375,0.79375 0,0.70555 0.08819,0.79375 0.79375,0.79375 0.705555,0 0.79375,-0.0882 0.79375,-0.79375 z m 0,-4.10104 c 0,-0.21828 -0.178594,-0.39688 -0.396875,-0.39688 -0.218281,0 -0.396875,0.1786 -0.396875,0.39688 0,0.21828 0.178594,0.39687 0.396875,0.39687 0.218281,0 0.396875,-0.17859 0.396875,-0.39687 z m -9.525,-3.175 c 0,-0.59531 0.105833,-0.66146 1.058333,-0.66146 h 1.058334 v -1.05833 -1.05834 h -1.852084 -1.852083 v 0.92604 c 0,0.88195 -0.0441,0.92605 -0.926042,0.92605 -0.852546,0 -0.926041,0.063 -0.926041,0.79375 v 0.79375 h 1.719791 c 1.658056,0 1.719792,-0.0238 1.719792,-0.66146 z m 5.760371,-3.43839 c 0.03951,-0.0312 -0.04224,-0.34184 -0.181666,-0.69039 -0.199406,-0.4985 -0.257075,-0.52964 -0.270267,-0.14593 -0.0092,0.26828 -0.254896,0.55006 -0.545938,0.62617 -0.816983,0.21365 -0.625708,0.63907 0.198437,0.44136 0.400183,-0.096 0.759928,-0.20005 0.799434,-0.23121 z m 3.764629,-0.39807 c 0,-0.70556 -0.08819,-0.79375 -0.79375,-0.79375 -0.705556,0 -0.79375,0.0882 -0.79375,0.79375 0,0.70556 0.08819,0.79375 0.79375,0.79375 0.705555,0 0.79375,-0.0882 0.79375,-0.79375 z m 0.79375,-2.38125 c 0,-0.29398 0.176389,-0.52917 0.396875,-0.52917 0.218281,0 0.396875,-0.10632 0.396875,-0.23627 0,-0.12995 -0.178594,-0.30481 -0.396875,-0.38857 -0.218281,-0.0838 -0.396875,-0.33463 -0.396875,-0.55748 0,-0.22285 -0.119063,-0.40518 -0.264583,-0.40518 -0.145521,0 -0.264584,0.11907 -0.264584,0.26459 0,0.14552 -0.187098,0.26458 -0.415774,0.26458 -0.565393,0 -1.109787,0.58714 -1.319638,1.42325 -0.168921,0.67303 -0.138193,0.69342 1.045271,0.69342 1.042919,0 1.219308,-0.0765 1.219308,-0.52917 z m 0.709907,-3.75378 c -0.08446,-0.21106 -0.147157,-0.14837 -0.159852,0.15986 -0.01149,0.27891 0.05105,0.43518 0.138964,0.34726 0.08792,-0.0879 0.09732,-0.31612 0.02089,-0.50712 z m -1.503657,-1.2927 c 0,-0.88365 -0.08339,-1.06184 -0.463021,-0.98949 -0.8229,0.15684 -0.769447,2.06722 0.05784,2.06722 0.297535,0 0.405179,-0.28632 0.405179,-1.07773 z m -3.704167,0.54856 c 0,-0.14552 -0.357187,-0.26458 -0.79375,-0.26458 -0.436562,0 -0.79375,0.11906 -0.79375,0.26458 0,0.14552 0.357188,0.26459 0.79375,0.26459 0.436563,0 0.79375,-0.11907 0.79375,-0.26459 z m 3.439584,-3.83646 c 0,-0.24694 -0.249885,-0.39687 -0.661459,-0.39687 -0.411574,0 -0.661458,0.14993 -0.661458,0.39687 0,0.24695 0.249884,0.39688 0.661458,0.39688 0.411574,0 0.661459,-0.14993 0.661459,-0.39688 z m 23.10831,-1.42213 c -0.19637,-0.80937 -0.88331,-1.89755 -0.88331,-1.39925 0,0.18649 -0.12484,0.26191 -0.27743,0.16761 -0.18966,-0.11721 -0.17941,-0.28958 0.0324,-0.54478 0.2376,-0.2863 0.23304,-0.46583 -0.0196,-0.7702 -0.3721,-0.44834 -1.05834,-0.53412 -1.05834,-0.13229 0,0.14552 0.1318,0.26459 0.29289,0.26459 0.16109,0 0.22396,0.17962 0.13972,0.39917 -0.0842,0.21954 -0.0177,0.72556 0.14796,1.12448 0.3227,0.77724 0.39285,0.9908 0.44469,1.35369 0.0182,0.12733 0.32927,0.23151 0.69127,0.23151 0.57685,0 0.63737,-0.0858 0.4897,-0.69453 z m -23.410504,-2.28525 c 0.08698,-0.44881 0.0601,-0.45394 -0.330729,-0.0631 -0.508363,0.50837 -0.552101,0.81408 -0.09468,0.66177 0.181901,-0.0606 0.373336,-0.32995 0.425411,-0.59865 z m -6.841556,-3.17178 v -3.57188 h -0.926042 c -0.881945,0 -0.926042,0.0441 -0.926042,0.92604 0,0.88195 -0.0441,0.92605 -0.926041,0.92605 h -0.926042 v 2.64583 2.64583 h 1.852083 1.852084 z m 7.408333,1.08918 c 0,-0.74811 -0.110227,-0.91627 -0.670827,-1.02344 -0.473116,-0.0904 -0.748789,0.0174 -0.935351,0.36603 -0.378721,0.70765 0.140478,1.5526 0.954029,1.5526 0.564644,0 0.652149,-0.12011 0.652149,-0.89519 z m 18.889397,-1.3754 c 0.24837,-0.64725 0.19452,-0.73277 -0.23627,-0.37524 -0.43984,0.36503 -0.52658,0.79375 -0.1606,0.79375 0.12995,0 0.30854,-0.18833 0.39687,-0.41851 z m -21.704133,-0.50753 c 0.206248,-0.53748 0.631957,-0.50139 0.780269,0.0661 0.07444,0.28487 0.132809,0.18307 0.151692,-0.26458 0.02368,-0.56145 -0.09015,-0.7276 -0.498475,-0.7276 -0.352778,0 -0.529167,-0.17639 -0.529167,-0.52917 0,-1.10381 -0.463176,-0.47336 -0.485954,0.66146 -0.02341,1.16653 0.279798,1.58032 0.581635,0.79375 z m 20.854913,-0.71879 c -0.18986,-0.18985 -0.31309,-0.20547 -0.31309,-0.0397 0,0.35316 0.31289,0.66606 0.48948,0.48947 0.0752,-0.0752 -0.004,-0.27759 -0.17639,-0.44979 z m -17.51101,-0.59582 c 0,-0.24584 -0.153934,-0.32951 -0.41906,-0.22777 -0.337403,0.12948 -0.350291,0.2044 -0.06614,0.38452 0.469931,0.29789 0.485205,0.29296 0.485205,-0.15675 z m -4.846343,-0.45479 c -0.08446,-0.21107 -0.147157,-0.14838 -0.159853,0.15985 -0.01149,0.27891 0.05105,0.43518 0.138965,0.34726 0.08792,-0.0879 0.09732,-0.31612 0.02089,-0.50711 z m 5.640093,0.0496 c 0,-0.29105 -0.119063,-0.52917 -0.264584,-0.52917 -0.145521,0 -0.264583,-0.27116 -0.264583,-0.60259 0,-0.33142 -0.190738,-0.8749 -0.423862,-1.20773 -0.233125,-0.33283 -0.356376,-0.67264 -0.273893,-0.75512 0.08248,-0.0825 0.02407,-0.38522 -0.129815,-0.67275 -0.204608,-0.38232 -0.358512,-0.44406 -0.572775,-0.2298 -0.509888,0.50989 -1.156971,0.34212 -1.134205,-0.29407 0.031,-0.86637 -0.79939,-0.92821 -1.013415,-0.0755 -0.220284,0.87768 0.01712,1.25632 0.659815,1.05234 0.684826,-0.21736 0.668019,0.44061 -0.02227,0.8717 -0.547247,0.34177 -0.731075,1.11974 -0.264583,1.11974 0.145521,0 0.264583,-0.17859 0.264583,-0.39688 0,-0.21828 0.119063,-0.39687 0.264584,-0.39687 0.14552,0 0.264583,0.13428 0.264583,0.2984 0,0.19995 0.349173,0.24256 1.058333,0.12916 0.648913,-0.10376 1.058334,-0.0657 1.058334,0.0985 0,0.14724 -0.137516,0.26771 -0.305591,0.26771 -0.182838,0 -0.129698,0.19436 0.132292,0.48385 0.240835,0.26612 0.437882,0.68284 0.437882,0.92605 0,0.2432 0.119062,0.44218 0.264583,0.44218 0.145521,0 0.264584,-0.23812 0.264584,-0.52916 z m -1.984375,0 c 0.08994,-0.14552 0.03743,-0.26459 -0.116677,-0.26459 -0.154109,0 -0.280198,0.11907 -0.280198,0.26459 0,0.14552 0.0525,0.26458 0.116676,0.26458 0.06417,0 0.190262,-0.11906 0.280199,-0.26458 z m -2.861968,-3.75378 c -0.08446,-0.21107 -0.147157,-0.14837 -0.159853,0.15985 -0.01149,0.27892 0.05105,0.43519 0.138965,0.34727 0.08792,-0.0879 0.09732,-0.31612 0.02089,-0.50712 z m -1.058334,-1.85208 c -0.08446,-0.21107 -0.147156,-0.14838 -0.159852,0.15985 -0.01149,0.27891 0.05105,0.43518 0.138964,0.34726 0.08792,-0.0879 0.09732,-0.31612 0.02089,-0.50711 z m 4.052593,-2.19935 c 0,-2.72916 -0.30821,-3.64201 -0.637334,-1.88763 -0.306752,1.63513 -0.128816,4.66575 0.273938,4.66575 0.285067,0 0.363396,-0.59882 0.363396,-2.77812 z m -1.77109,0.33073 c 0.547983,-0.50999 0.622126,-0.77545 0.517279,-1.85209 -0.114686,-1.17766 -0.593444,-1.80858 -0.602324,-0.79375 -0.0027,0.3135 -0.06908,0.36073 -0.20542,0.14626 -0.26909,-0.42329 -0.71657,-0.074 -0.71657,0.5593 0,0.27891 -0.148828,0.55673 -0.330729,0.61736 -0.181901,0.0606 -0.330729,-0.0783 -0.330729,-0.30868 0,-0.23041 -0.119063,-0.41892 -0.264583,-0.41892 -0.441481,0 -0.29566,0.79843 0.179092,0.98061 0.396993,0.15234 0.390033,0.19127 -0.06615,0.36997 -0.461316,0.18072 -0.451697,0.20149 0.101106,0.21832 0.336506,0.0102 0.537476,0.13744 0.447406,0.28318 -0.189302,0.3063 0.05495,0.79375 0.397736,0.79375 0.128818,0 0.522065,-0.26789 0.873882,-0.59531 z m 24.454774,-2.47141 c 0.33402,-0.33402 0.35043,-0.46443 0.0795,-0.63188 -0.18777,-0.11604 -0.27147,-0.32412 -0.18602,-0.46239 0.18322,-0.29646 -2.06281,-0.30236 -2.35874,-0.006 -0.20268,0.20284 -0.1566,0.21985 0.89047,0.32877 0.65696,0.0683 1.15301,0.39884 0.59864,0.39884 -0.27318,0 -0.27551,0.079 -0.0117,0.39687 0.41099,0.49522 0.47006,0.49378 0.98785,-0.024 z m -2.31077,-1.69578 c 0,-0.14552 -0.23812,-0.26458 -0.52916,-0.26458 -0.29105,0 -0.52917,0.11906 -0.52917,0.26458 0,0.14552 0.23812,0.26458 0.52917,0.26458 0.29104,0 0.52916,-0.11906 0.52916,-0.26458 z m -1.5875,-0.10398 c 0,-0.0572 -0.17859,-0.17252 -0.39687,-0.25628 -0.21828,-0.0838 -0.39688,-0.037 -0.39688,0.10398 0,0.14095 0.1786,0.25628 0.39688,0.25628 0.21828,0 0.39687,-0.0468 0.39687,-0.10398 z m 4.06443,-0.2929 c 0.10545,-0.2748 -0.0179,-0.39687 -0.40096,-0.39687 -0.46179,0 -0.4988,0.0656 -0.22388,0.39687 0.18115,0.21829 0.36159,0.39688 0.40096,0.39688 0.0394,0 0.14012,-0.17859 0.22388,-0.39688 z m -5.67875,-0.76143 c 0.23739,-0.28603 0.1901,-0.39396 -0.2195,-0.50108 -0.28713,-0.0751 -0.5779,-3.3e-4 -0.64614,0.16612 -0.0682,0.16646 -0.13349,-0.0248 -0.14498,-0.42496 -0.0115,-0.40018 -0.15384,-0.7276 -0.31633,-0.7276 -0.16716,0 -0.23413,0.23448 -0.15422,0.54003 0.11441,0.43751 0.0449,0.50947 -0.36602,0.37905 -0.83568,-0.26524 -0.57271,0.13634 0.35266,0.53854 1.08251,0.47051 1.12811,0.47142 1.49453,0.0299 z m -4.47109,-1.22294 c 0,-0.14552 -0.20836,-0.26276 -0.46302,-0.26053 -0.3957,0.003 -0.40532,0.0413 -0.0662,0.26053 0.49932,0.32269 0.52917,0.32269 0.52917,0 z m -10.150663,-1.24302 c -0.101578,-0.10158 0.08694,-0.33548 0.418923,-0.51979 0.587114,-0.32595 0.580109,-0.33536 -0.256285,-0.34448 -1.117255,-0.0122 -1.188608,0.81957 -0.08819,1.02807 0.06063,0.0115 0.02713,-0.0622 -0.07444,-0.1638 z m 3.536073,-0.74136 c 0,-0.21828 -0.17156,-0.39687 -0.38126,-0.39687 -0.442022,0 -0.740409,0.37763 -0.493488,0.62455 0.316218,0.31622 0.874748,0.17085 0.874748,-0.22768 z m 30.95625,54.5354 c 0,-0.21828 0.11907,-0.47046 0.26459,-0.5604 0.14552,-0.0899 0.26458,0.0151 0.26458,0.23336 0,0.21828 -0.11906,0.47046 -0.26458,0.56039 -0.14552,0.0899 -0.26459,-0.0151 -0.26459,-0.23335 z m -3.69479,-1.14009 c -0.005,-0.31884 -0.13038,-0.65449 -0.27827,-0.74589 -0.1479,-0.0914 -0.17766,-0.30679 -0.0662,-0.47864 0.11152,-0.17184 0.2742,-7.69432 0.36153,-16.71661 0.14996,-15.49363 0.18974,-16.52979 0.71671,-18.66733 1.98013,-8.032 5.81163,-14.80595 11.44051,-20.22642 1.75497,-1.69 1.77758,-1.62533 0.23124,0.66146 -4.46954,6.60972 -7.81533,13.75712 -9.26953,19.80189 -0.59338,2.46656 -0.48974,3.56692 0.39028,4.14353 0.77026,0.50469 2.32155,0.0947 5.78093,-1.52799 9.84167,-4.6163 14.80805,-12.56255 16.13283,-25.81263 0.24467,-2.44704 0.24694,-4.00729 0.01,-6.76937 -0.41722,-4.86119 -0.8985,-5.71043 -3.23621,-5.71043 -2.49381,0 -8.41505,1.96699 -12.12198,4.02684 -5.35357,2.97483 -9.1742,6.8285 -11.61542,11.71587 -1.40428,2.81138 -2.96001,8.47086 -2.98197,10.84791 -0.007,0.76807 -0.0782,0.95009 -0.2593,0.66366 -0.13723,-0.21707 -0.1802,-0.67085 -0.0955,-1.00839 0.11983,-0.47744 0.0261,-0.64718 -0.42221,-0.76441 l -0.57624,-0.15069 0.60224,-0.30025 c 0.48734,-0.24297 0.66323,-0.66453 0.92196,-2.20984 0.17585,-1.05028 0.38949,-2.02246 0.47474,-2.16041 0.0853,-0.13794 0.0321,-0.32679 -0.1182,-0.41967 -0.15027,-0.0929 -0.19686,-0.2924 -0.10354,-0.4434 0.1094,-0.17702 0.25049,-0.14702 0.39714,0.0844 0.16054,0.25336 0.22865,0.15442 0.23151,-0.33632 0.002,-0.38241 0.20403,-1.15631 0.44844,-1.71979 0.24441,-0.56347 0.41734,-1.22214 0.38428,-1.46369 -0.0331,-0.24156 0.19659,-0.619 0.51034,-0.83876 0.31374,-0.21975 0.49869,-0.51565 0.41099,-0.65755 -0.0877,-0.14191 0.026,-0.32917 0.25267,-0.41616 0.22667,-0.087 0.33682,-0.27999 0.24478,-0.42891 -0.092,-0.14892 -0.2784,-0.20213 -0.41414,-0.11824 -0.13574,0.0839 -0.36564,-0.16004 -0.51089,-0.54208 -0.40169,-1.05652 -0.32532,-1.11766 0.40808,-0.32672 0.36969,0.3987 0.71654,0.7249 0.77077,0.7249 0.18555,0 -0.51643,-1.71945 -0.78148,-1.91417 -0.14941,-0.10977 -0.063,-0.19615 0.19844,-0.19844 0.25466,-0.002 0.46302,-0.12312 0.46302,-0.26864 0,-0.14552 0.23813,-0.26458 0.52917,-0.26458 0.35278,0 0.52917,-0.17639 0.52917,-0.52917 0,-0.29398 0.17638,-0.52916 0.39687,-0.52916 0.81243,0 0.39483,-0.76042 -0.46302,-0.84314 l -0.8599,-0.0829 -0.0764,-2.3151 -0.0764,-2.3151 1.00249,-0.0168 c 0.88673,-0.0148 0.93178,-0.0451 0.39018,-0.26235 -0.33677,-0.13507 -0.53309,-0.37376 -0.43626,-0.53043 0.0968,-0.15668 0.33491,-0.2239 0.52907,-0.1494 0.19416,0.0745 0.40076,-0.007 0.45911,-0.1804 0.0787,-0.23432 0.3051,-0.21352 0.87699,0.0806 0.95046,0.4888 1.15854,0.76091 1.16372,1.52178 0.004,0.52137 -0.13561,0.5979 -1.12043,0.6162 -0.61846,0.0115 -0.94588,0.0862 -0.7276,0.16597 0.51561,0.18848 1.5875,1.16534 1.5875,1.44676 0,0.45287 -0.76518,0.19614 -0.92604,-0.3107 -0.28856,-0.90918 -0.92604,-0.63597 -0.92604,0.39687 0,0.64676 0.11969,0.92604 0.39687,0.92604 0.21828,0 0.39688,-0.11906 0.39688,-0.26458 0,-0.14552 0.25423,-0.26458 0.56497,-0.26458 0.31073,0 0.84083,-0.29766 1.17799,-0.66146 0.67233,-0.72545 1.06574,-0.83431 1.23036,-0.34044 0.0718,0.21548 0.36178,0.11614 0.88195,-0.30215 l 0.77493,-0.62316 -0.82373,0.156 c -0.69769,0.13214 -0.86975,0.055 -1.12448,-0.50405 -0.37155,-0.81546 -0.3903,-1.69349 -0.0362,-1.69349 0.24851,0 0.3691,0.46583 0.33162,1.28099 -0.009,0.20571 0.17099,0.30598 0.42916,0.23847 0.24501,-0.0641 0.60143,0.0505 0.79205,0.25451 0.48339,0.51748 0.9743,0.27003 0.89144,-0.44934 -0.0381,-0.33078 0.0537,-0.7496 0.20401,-0.93071 0.20085,-0.242 0.12196,-0.36886 -0.29759,-0.47858 -0.48373,-0.1265 -0.54517,-0.27784 -0.40245,-0.99143 0.0926,-0.46318 0.16843,-1.06538 0.16843,-1.33824 0,-0.3197 0.18814,-0.49609 0.52916,-0.49609 0.35278,0 0.52917,-0.17639 0.52917,-0.52917 0,-0.45861 0.17639,-0.52916 1.32292,-0.52916 1.14652,0 1.32291,0.0706 1.32291,0.52916 0,0.35278 0.17639,0.52917 0.52917,0.52917 0.35278,0 0.52917,-0.17639 0.52917,-0.52917 0,-0.42837 0.17638,-0.52916 0.92604,-0.52916 0.61515,0 0.92604,-0.12374 0.92604,-0.36857 0,-0.20271 0.17859,-0.4371 0.39687,-0.52086 0.21829,-0.0838 0.39688,-0.34182 0.39688,-0.57345 0,-0.32487 0.22682,-0.40238 0.99219,-0.33903 0.78616,0.0651 1.00922,0.20174 1.07421,0.65822 0.0705,0.49517 0.20604,0.55597 0.96479,0.43284 0.73998,-0.12008 0.91222,-0.0504 1.065,0.43099 0.1645,0.51829 0.3025,0.55671 1.41647,0.39437 2.27981,-0.33223 4.80609,-0.33662 4.80609,-0.008 0,0.16839 0.23812,0.4778 0.52917,0.68757 0.29104,0.20977 0.52916,0.47993 0.52916,0.60035 0,0.12043 0.22732,0.68946 0.50516,1.26451 0.27783,0.57505 0.38632,1.04555 0.24108,1.04555 -0.16491,0 -0.20293,0.62099 -0.10126,1.65365 0.3295,3.34674 0.13534,10.32029 -0.31229,11.21645 -0.135,0.27025 -0.27349,1.04752 -0.30777,1.72728 -0.0508,1.00687 0.027,1.25755 0.4194,1.35264 0.28745,0.0696 0.24164,0.0929 -0.11359,0.0575 -0.40563,-0.0403 -0.59531,0.0831 -0.59531,0.38747 0,0.34137 0.17914,0.42036 0.76004,0.3351 0.67038,-0.0984 0.77341,-0.0204 0.87339,0.66075 0.11962,0.81502 -0.27965,1.39453 -0.96081,1.39453 -0.23165,0 -0.40804,-0.22875 -0.40804,-0.52917 0,-0.29104 -0.11033,-0.52916 -0.24518,-0.52916 -0.13485,0 -0.29963,-0.20836 -0.36618,-0.46302 -0.0666,-0.25467 -0.13481,-0.0761 -0.1517,0.39687 -0.0169,0.47294 -0.12542,0.8599 -0.24119,0.8599 -0.11578,0 -0.24033,0.44285 -0.27679,0.98411 -0.0365,0.54126 -0.15027,1.04728 -0.25293,1.12448 -0.10267,0.0772 -0.36237,0.49755 -0.57711,0.93411 -0.21475,0.43657 -0.66105,1.23787 -0.99177,1.78068 -0.33072,0.54282 -0.60131,1.16789 -0.60131,1.38907 0,0.22117 -0.11907,0.40213 -0.26459,0.40213 -0.64754,0 -0.19807,0.82028 0.52917,0.96573 0.58699,0.1174 0.79165,0.3052 0.7857,0.72099 -0.007,0.50902 -0.0336,0.51841 -0.27773,0.0992 -0.33046,-0.56737 -0.77255,-0.60522 -0.77255,-0.0661 0,0.21828 -0.11907,0.39688 -0.26459,0.39688 -0.14552,0 -0.26458,-0.25957 -0.26458,-0.57682 0,-0.52394 -0.0724,-0.49571 -0.78994,0.30796 -0.68074,0.76248 -0.7675,1.0251 -0.62764,1.89974 0.10759,0.67286 0.0617,1.01495 -0.1361,1.01495 -0.16412,0 -0.2984,-0.30079 -0.2984,-0.66842 0,-0.6369 -0.0565,-0.61195 -1.19759,0.52917 -0.65868,0.65867 -1.37305,1.19758 -1.5875,1.19758 -0.21445,0 -0.38991,0.16886 -0.38991,0.37524 0,0.20638 -0.0723,0.56357 -0.1606,0.79375 -0.10539,0.27463 -0.0144,0.41851 0.26458,0.41851 0.24879,0 0.42518,-0.21952 0.42518,-0.52916 0,-0.29105 0.10933,-0.52917 0.24295,-0.52917 0.13362,0 0.43127,-0.0723 0.66145,-0.1606 0.34866,-0.13379 0.41852,0.0697 0.41852,1.21893 0,1.14925 0.0699,1.35273 0.41851,1.21894 0.23019,-0.0883 0.58737,-0.1606 0.79375,-0.1606 0.20638,0 0.37524,-0.23813 0.37524,-0.52917 0,-0.29398 0.17639,-0.52917 0.39687,-0.52917 0.52044,0 0.50347,-0.26059 -0.043,-0.66017 -0.72563,-0.5306 -0.24792,-1.24065 0.76878,-1.14266 0.77775,0.075 0.88439,0.19109 1.09445,1.19191 0.33116,1.57781 0.11936,1.93384 -1.15047,1.93384 -0.58665,0 -1.06664,0.11906 -1.06664,0.26458 0,0.14552 0.23812,0.26459 0.52917,0.26459 0.35277,0 0.52916,0.17639 0.52916,0.52916 0,0.35278 0.17639,0.52917 0.52917,0.52917 0.44027,0 0.52917,0.17639 0.52917,1.05003 0,0.82466 -0.0852,1.01734 -0.39688,0.89773 -0.21828,-0.0838 -0.39687,-0.31815 -0.39687,-0.52086 0,-0.20271 -0.1786,-0.36857 -0.39688,-0.36857 -0.21828,0 -0.40049,-0.20836 -0.40492,-0.46302 -0.008,-0.44097 -0.0209,-0.44097 -0.27773,0 -0.14833,0.25466 -0.44236,0.46302 -0.65341,0.46302 -0.21105,0 -0.38373,0.1786 -0.38373,0.39688 0,0.22048 0.23518,0.39687 0.52917,0.39687 0.42837,0 0.52916,0.17639 0.52916,0.92604 0,0.904 -0.0252,0.92605 -1.05833,0.92605 -0.76435,0 -1.05833,-0.11025 -1.05833,-0.39688 0,-0.21828 -0.1786,-0.39687 -0.39688,-0.39687 -0.21828,0 -0.39687,0.18233 -0.39687,0.40518 0,0.22284 -0.1786,0.47371 -0.39688,0.55747 -0.21828,0.0838 -0.39687,0.25862 -0.39687,0.38857 0,0.12995 0.17859,0.23628 0.39687,0.23628 0.21828,0 0.39688,0.17859 0.39688,0.39687 0,0.22049 0.23518,0.39688 0.52916,0.39688 0.29693,0 0.52917,0.17639 0.52917,0.40191 0,0.30423 0.17685,0.35965 0.7276,0.228 1.01893,-0.24354 1.12448,-0.32897 1.12448,-0.91011 0,-0.86321 0.96617,-0.64366 1.14703,0.26064 0.23601,1.18007 -0.47591,2.40081 -1.40013,2.40081 -0.521,0 -0.78493,0.15836 -0.88189,0.52916 -0.18638,0.71269 -0.66004,0.67173 -0.76483,-0.0661 -0.0709,-0.49925 -0.25533,-0.59907 -1.14289,-0.6186 -1.02152,-0.0225 -1.05599,-0.0524 -0.99118,-0.85989 0.0636,-0.79269 0.0185,-0.83662 -0.85989,-0.83662 -0.8831,0 -0.92705,-0.0439 -0.92705,-0.92604 0,-0.99227 -0.39986,-1.20402 -0.92288,-0.48874 -0.46803,0.64006 -1.01102,0.18928 -0.79737,-0.66195 0.0961,-0.38285 0.29831,-0.77249 0.44939,-0.86586 0.17084,-0.10558 0.0408,-0.48617 -0.34413,-1.00676 -0.45781,-0.61922 -0.79289,-0.81668 -1.28785,-0.75892 -0.60873,0.071 -0.67624,0.20327 -0.74901,1.46713 -0.0832,1.44469 -0.63798,1.93232 -0.97836,0.85989 -0.37647,-1.18615 -0.99652,0.0412 -0.72867,1.44237 0.10988,0.57482 0.2788,0.6576 1.48466,0.7276 l 1.36068,0.079 -1.13263,0.59531 c -0.62294,0.32743 -1.29481,0.59532 -1.49305,0.59532 -0.39722,0 -0.68161,0.56098 -0.68161,1.34455 0,0.4388 0.19707,0.50753 1.4552,0.50753 1.11713,0 1.45521,0.0922 1.45521,0.39687 0,0.30468 -0.33808,0.39688 -1.45521,0.39688 -1.11713,0 -1.4552,-0.0922 -1.4552,-0.39688 0,-0.26458 -0.26459,-0.39687 -0.79375,-0.39687 -0.52917,0 -0.79375,0.13229 -0.79375,0.39687 0,0.77884 -1.78812,0.31851 -1.90337,-0.48999 -0.0626,-0.43912 -0.29177,-0.58613 -1.008,-0.64657 -0.92526,-0.0781 -0.92681,-0.0804 -0.83325,-1.25677 0.0872,-1.09637 0.14613,-1.17854 0.84523,-1.17854 0.41332,0 0.82507,0.11906 0.91501,0.26458 0.25796,0.41739 0.92604,0.30828 0.92604,-0.15122 0,-0.27762 0.19786,-0.39025 0.59532,-0.3389 0.79678,0.10295 1.25677,-0.21793 1.25677,-0.87672 0,-0.37752 -0.1227,-0.49477 -0.40456,-0.38661 -0.29103,0.11168 -0.44881,-0.066 -0.56224,-0.63315 -0.16136,-0.80678 -0.45588,-1.00455 -0.76094,-0.51097 -0.11524,0.18647 -0.30891,0.16478 -0.59066,-0.0661 -0.36529,-0.29939 -0.39893,-0.26494 -0.26158,0.26786 0.11994,0.46529 0.0226,0.6614 -0.40727,0.82041 -0.82794,0.30628 -1.50588,0.0417 -1.54444,-0.60281 -0.0186,-0.31045 -0.0618,-0.83235 -0.0962,-1.15977 -0.0374,-0.35679 0.0821,-0.59531 0.29835,-0.59531 0.19841,0 0.36075,-0.11906 0.36075,-0.26458 0,-0.38282 -0.98955,-0.32578 -1.14769,0.0661 -0.0734,0.1819 -0.14285,0.0628 -0.15434,-0.26458 -0.0155,-0.44227 -0.18048,-0.59531 -0.64164,-0.59531 -0.53601,0 -0.62453,0.13545 -0.64841,0.99218 -0.19354,6.94365 -0.20404,9.29108 -0.0484,10.82226 0.11064,1.08864 0.19911,1.41564 0.22168,0.81941 0.0254,-0.67062 0.16126,-0.99219 0.41923,-0.99219 0.25986,0 0.40762,-0.35885 0.46302,-1.12448 0.079,-1.0915 0.11045,-1.12688 1.07355,-1.20659 0.64078,-0.053 0.99218,0.0303 0.99218,0.23529 0,0.22669 0.39006,0.27121 1.36475,0.15577 l 1.36474,-0.16163 -0.57099,0.53196 c -0.31405,0.29258 -0.571,0.76919 -0.571,1.05913 0,0.28994 -0.17859,0.59569 -0.39687,0.67946 -0.21828,0.0838 -0.39688,0.31815 -0.39688,0.52086 0,0.20271 -0.1647,0.36857 -0.36601,0.36857 -0.20131,0 -0.42842,0.23861 -0.50469,0.53025 -0.0925,0.35374 -0.27893,0.47644 -0.56002,0.36857 -0.29102,-0.11167 -0.42385,-0.01 -0.42941,0.32964 -0.007,0.42715 -0.04,0.43661 -0.25303,0.0724 -0.16727,-0.28601 -0.50047,-0.3814 -1.05029,-0.3007 -0.87397,0.12827 -1.04931,0.43704 -0.39152,0.68946 0.55207,0.21185 0.41967,1.88221 -0.14919,1.88221 -0.58029,0 -0.66639,1.54477 -0.11674,2.09442 0.37522,0.37522 0.44642,1.13655 0.47731,5.10393 0.0274,3.52131 -0.0447,4.69002 -0.29443,4.77361 -0.1819,0.0609 -0.33073,0.51748 -0.33073,1.01467 0,0.4972 -0.11906,0.904 -0.26458,0.904 -0.4055,0 -0.31419,1.09429 0.11899,1.42604 0.33197,0.25422 0.33323,0.38275 0.009,0.95521 -0.36128,0.63861 -0.37453,0.64144 -0.38358,0.0818 z m 0.78438,-4.84426 c 0,-0.14552 -0.12609,-0.26459 -0.2802,-0.26459 -0.15411,0 -0.20662,0.11907 -0.11668,0.26459 0.0899,0.14552 0.21603,0.26458 0.2802,0.26458 0.0642,0 0.11668,-0.11906 0.11668,-0.26458 z m -0.0929,-6.20432 c 0.0606,-0.80773 0.0127,-1.4686 -0.10645,-1.4686 -0.11918,0 -0.2369,0.72898 -0.26159,1.61995 -0.055,1.98437 0.21609,1.87289 0.36804,-0.15135 z m 5.64919,-20.98989 c 0,-0.049 -0.0893,-0.0409 -0.19844,0.018 -0.10914,0.0589 -0.41434,0.18416 -0.67823,0.27833 -0.26388,0.0942 -0.40859,0.28643 -0.32156,0.42724 0.13257,0.21451 1.19823,-0.42901 1.19823,-0.72357 z m 9.2075,-0.11079 c 0.34904,-0.34905 0.43454,-1.70059 0.11906,-1.88214 -0.10914,-0.0628 -0.79375,-0.18085 -1.52136,-0.26231 -0.7276,-0.0815 -1.11455,-0.0879 -0.85989,-0.0143 0.30111,0.087 0.46302,0.39701 0.46302,0.88652 0,0.41399 0.0723,0.94104 0.1606,1.17122 0.18927,0.49325 1.18495,0.55463 1.63857,0.10102 z m -14.8476,-1.31961 c -0.0845,-0.21107 -0.14715,-0.14838 -0.15985,0.15985 -0.0115,0.27891 0.0511,0.43518 0.13897,0.34726 0.0879,-0.0879 0.0973,-0.31612 0.0209,-0.50711 z m 0.53178,-0.40838 c -0.0671,-0.25743 -0.12638,-0.11087 -0.13177,0.32569 -0.005,0.43657 0.0495,0.64719 0.12197,0.46806 0.0725,-0.17913 0.0769,-0.53632 0.01,-0.79375 z m 17.54373,0.45799 c 0,-0.35278 -0.17639,-0.52917 -0.52916,-0.52917 -0.35278,0 -0.52917,0.17639 -0.52917,0.52917 0,0.35277 0.17639,0.52916 0.52917,0.52916 0.35277,0 0.52916,-0.17639 0.52916,-0.52916 z m -6.40958,-0.96095 c 0.39932,-0.39932 0.38298,-0.41698 -0.21734,-0.23485 -0.86993,0.26393 -1.2826,0.66663 -0.68314,0.66663 0.25778,0 0.663,-0.1943 0.90048,-0.43178 z m -9.90648,-1.54332 c 0.26674,-0.64865 0.40391,-1.31055 0.30481,-1.47089 -0.0991,-0.16034 0.0245,-0.51771 0.27471,-0.79416 0.26365,-0.29132 0.3831,-0.68972 0.28413,-0.94763 -0.0939,-0.24475 -0.002,-0.63614 0.20319,-0.86975 0.41037,-0.46614 0.14837,-1.61539 -0.36828,-1.61539 -0.1588,0 -0.21462,0.11991 -0.12405,0.26646 0.0906,0.14654 -0.0215,0.33788 -0.24897,0.42518 -0.49199,0.18879 -0.55653,0.89239 -0.0829,0.90391 0.19314,0.005 0.1467,0.11542 -0.11162,0.26616 -0.24329,0.14196 -0.52614,0.64436 -0.62855,1.11643 -0.10242,0.47208 -0.2857,0.92203 -0.4073,0.99989 -0.27251,0.1745 -0.56327,2.33013 -0.35889,2.66082 0.32842,0.53141 0.8038,0.17742 1.26373,-0.94103 z m 12.39835,0.18916 c 0.65421,-0.76177 0.8803,-1.24074 0.46433,-0.98365 -0.64027,0.3957 -1.30912,1.0297 -1.30912,1.24089 0,0.35573 0.43112,0.22446 0.84479,-0.25724 z m -10.26793,-6.80371 c 0.47138,-0.71941 0.57965,-2.66205 0.16273,-2.91973 -0.14552,-0.0899 -0.27487,-0.0672 -0.28743,0.0505 -0.0126,0.11772 -0.058,0.80467 -0.10102,1.52654 -0.043,0.72187 -0.21132,1.35687 -0.37404,1.41111 -0.16272,0.0542 -0.29585,0.20776 -0.29585,0.34115 0,0.45682 0.46822,0.24268 0.89561,-0.40961 z m 1.22106,-3.05202 c 0,-0.27386 -0.0893,-0.55312 -0.19844,-0.62057 -0.10914,-0.0675 -0.19844,0.2118 -0.19844,0.62057 0,0.40877 0.0893,0.68803 0.19844,0.62058 0.10914,-0.0675 0.19844,-0.34671 0.19844,-0.62058 z m 1.25677,-2.30377 c 0.38662,-0.83249 0.42658,-1.40039 0.0985,-1.40039 -0.36755,0 -0.70733,0.59824 -0.78893,1.38906 -0.0957,0.9274 0.26223,0.93328 0.69039,0.0113 z m 0.8599,-2.72331 c 0,-0.14552 -0.11907,-0.26458 -0.26459,-0.26458 -0.14552,0 -0.26458,0.11906 -0.26458,0.26458 0,0.14552 0.11906,0.26458 0.26458,0.26458 0.14552,0 0.26459,-0.11906 0.26459,-0.26458 z m 1.19062,-1.5875 c 0.0899,-0.14552 0.0374,-0.26458 -0.11668,-0.26458 -0.1541,0 -0.28019,0.11906 -0.28019,0.26458 0,0.14552 0.0525,0.26458 0.11667,0.26458 0.0642,0 0.19026,-0.11906 0.2802,-0.26458 z m -9.23185,-7.60677 c 0.46779,-0.61624 0.457,-0.87732 -0.0286,-0.69099 -0.21828,0.0838 -0.39687,0.30822 -0.39687,0.49881 0,0.19059 -0.14883,0.40657 -0.33073,0.47997 -0.2416,0.0975 -0.23163,0.13908 0.037,0.15434 0.20224,0.0115 0.52587,-0.18747 0.71919,-0.44213 z m 2.22233,-2.44908 c 0.70431,-0.61084 0.62657,-0.83769 -0.21193,-0.61842 -0.34128,0.0893 -0.58376,0.35964 -0.58376,0.65096 0,0.62163 0.0435,0.61986 0.79569,-0.0325 z m 1.58556,-1.8504 c 0,-0.14552 -0.11906,-0.26458 -0.26458,-0.26458 -0.14552,0 -0.26458,0.11906 -0.26458,0.26458 0,0.14552 0.11906,0.26458 0.26458,0.26458 0.14552,0 0.26458,-0.11906 0.26458,-0.26458 z m 5.35782,-3.8079 c 0.56788,-0.43108 0.5927,-0.69002 0.0661,-0.69002 -0.21828,0 -0.39687,0.16868 -0.39687,0.37483 0,0.20615 -0.14883,0.43488 -0.33073,0.50828 -0.1819,0.0734 -0.21167,0.13906 -0.0661,0.14592 0.14552,0.007 0.47294,-0.14569 0.72761,-0.33901 z m 2.09942,-1.23359 c 0.0511,-0.15345 0.29574,-0.30875 0.54355,-0.34512 0.24781,-0.0364 0.53338,-0.14895 0.63461,-0.25018 0.10123,-0.10122 0.3953,-0.18404 0.6535,-0.18404 0.2582,0 0.53831,-0.11141 0.62247,-0.24758 0.095,-0.15372 -0.17427,-0.15372 -0.71024,0 -0.47479,0.13617 -1.19147,0.24758 -1.59261,0.24758 -0.55296,0 -0.72935,0.12797 -0.72935,0.52916 0,0.55286 0.41701,0.73334 0.57807,0.25018 z m -3.56015,-0.14545 c -0.0879,-0.0879 -0.31612,-0.0973 -0.50711,-0.0209 -0.21107,0.0845 -0.14838,0.14715 0.15985,0.15985 0.27891,0.0115 0.43518,-0.051 0.34726,-0.13897 z m 6.88468,-1.74157 c -0.0444,-0.21054 0.29536,-0.29166 1.03142,-0.2463 1.20466,0.0742 1.56134,-0.18013 0.99133,-0.70698 -0.23745,-0.21947 -0.3691,-0.2375 -0.3691,-0.0505 0,0.16593 -0.14191,0.20229 -0.33073,0.0847 -0.3797,-0.23637 -1.55373,-0.13972 -1.86076,0.15318 -0.25039,0.23888 0.036,1.07982 0.36771,1.07982 0.12996,0 0.20651,-0.14127 0.17013,-0.31393 z m -11.31093,69.40141 c 0,-0.29105 0.11906,-0.60276 0.26458,-0.69269 0.14552,-0.0899 0.26458,0.0746 0.26458,0.36564 0,0.29104 -0.11906,0.60275 -0.26458,0.69269 -0.14552,0.0899 -0.26458,-0.0746 -0.26458,-0.36564 z m 2.11666,0.11828 c 0,-0.20881 0.13326,-0.71482 0.29612,-1.12448 l 0.29612,-0.74483 0.25801,0.73634 c 0.1419,0.40498 0.19098,0.911 0.10906,1.12448 -0.19179,0.49979 -0.95931,0.50659 -0.95931,0.008 z m 17.77863,-2.04305 c 0.0636,-1.10999 0.18205,-1.42807 0.55837,-1.49963 0.41975,-0.0798 0.46783,0.0798 0.39687,1.31796 -0.0636,1.10998 -0.18205,1.42806 -0.55836,1.49963 -0.41975,0.0798 -0.46784,-0.0798 -0.39688,-1.31796 z m -19.46086,-0.23377 c -0.19123,-0.95618 -0.0479,-1.31228 0.52825,-1.31228 0.31463,0 0.3628,0.18735 0.22109,0.8599 -0.26093,1.23835 -0.55646,1.41676 -0.74934,0.45238 z m 4.32807,0.30645 c 0,-0.29104 0.11906,-0.60275 0.26458,-0.69269 0.14552,-0.0899 0.26458,0.0746 0.26458,0.36565 0,0.29104 -0.11906,0.60275 -0.26458,0.69269 -0.14552,0.0899 -0.26458,-0.0746 -0.26458,-0.36565 z m -5.55625,-4.26456 v -1.05833 h 1.05833 c 0.94295,0 1.05833,0.0697 1.05833,0.63981 0,1.14896 -0.27063,1.47685 -1.21893,1.47685 -0.87097,0 -0.89773,-0.0315 -0.89773,-1.05833 z m 3.29304,-1.34597 c -0.0978,-0.1582 -0.0453,-0.42014 0.11668,-0.58208 0.2162,-0.21621 0.29444,-0.13978 0.29444,0.28763 0,0.63884 -0.13744,0.73728 -0.41112,0.29445 z m -2.8272,-1.17505 c 0.15626,-0.81743 0.58345,-0.85793 0.61886,-0.0587 0.0254,0.57358 0.0346,0.57117 0.25177,-0.0661 l 0.22539,-0.66146 -0.0533,0.63639 c -0.0353,0.4219 -0.24112,0.66461 -0.61052,0.72012 -0.46456,0.0698 -0.53641,-0.025 -0.43217,-0.57024 z m 2.84145,-1.31815 c 0,-0.48292 0.0893,-0.9676 0.19844,-1.07707 0.10914,-0.10947 0.19843,0.2305 0.19843,0.75549 0,0.52498 -0.0893,1.00967 -0.19843,1.07707 -0.10915,0.0674 -0.19844,-0.27257 -0.19844,-0.75549 z m 5.15937,-0.37505 c 0,-0.45693 -0.14467,-0.49527 -1.38906,-0.36814 l -1.38906,0.14191 -0.0325,-3.07144 c -0.0193,-1.82273 0.0714,-3.07144 0.22321,-3.07144 0.14065,0 0.31799,0.23812 0.3941,0.52916 0.18205,0.69615 0.60583,0.68073 0.60583,-0.0221 0,-0.32271 0.1371,-0.50603 0.33073,-0.44221 0.20803,0.0686 0.37981,0.83751 0.46302,2.07257 0.11885,1.76405 0.16684,1.90308 0.47233,1.36826 0.2628,-0.46009 0.57833,-0.59532 1.38906,-0.59532 h 1.04903 l 0.0186,1.38907 c 0.0142,1.06289 0.0758,1.2648 0.26233,0.85989 l 0.24374,-0.52917 -0.0675,0.52917 c -0.0371,0.29104 -0.21472,0.54405 -0.39463,0.56224 -0.17991,0.0182 -0.43228,0.048 -0.56083,0.0661 -0.12855,0.0182 -0.29599,0.27119 -0.3721,0.56224 -0.18491,0.70706 -1.24626,0.72334 -1.24626,0.0191 z m 5.60122,-0.0641 c 0.0582,-0.411 0.29282,-0.6456 0.70381,-0.70382 0.51298,-0.0727 0.60183,0.0162 0.52917,0.52917 -0.0582,0.41099 -0.29282,0.6456 -0.70381,0.70381 -0.51298,0.0727 -0.60183,-0.0162 -0.52917,-0.52916 z m -11.68663,-2.0717 c 0,-0.29104 0.11906,-0.52917 0.26458,-0.52917 0.14552,0 0.26458,0.23813 0.26458,0.52917 0,0.29104 -0.11906,0.52917 -0.26458,0.52917 -0.14552,0 -0.26458,-0.23813 -0.26458,-0.52917 z m 28.21502,-0.18358 c -0.27378,-0.27379 -0.19349,-2.68059 0.0954,-2.85913 0.40239,-0.24869 0.31574,-0.92604 -0.11846,-0.92604 -0.27555,0 -0.40549,0.38984 -0.46302,1.38906 l -0.08,1.38906 -0.99218,0.0821 -0.99219,0.0821 0.005,-1.40503 c 0.004,-1.14894 0.12431,-1.51861 0.66146,-2.02812 0.52056,-0.49378 0.65689,-0.53496 0.65689,-0.19844 0,0.23356 0.11362,0.42465 0.25249,0.42465 0.13887,0 0.2877,-0.80368 0.33073,-1.78594 0.0711,-1.62274 0.13263,-1.79366 0.67355,-1.87049 0.55622,-0.079 0.59531,0.0122 0.59531,1.38907 0,1.45268 0.33596,1.97641 0.60583,0.94444 0.0828,-0.3166 0.36089,-0.52917 0.69232,-0.52917 0.49543,0 0.55393,0.15458 0.55393,1.46352 0,1.12429 -0.10263,1.50289 -0.44281,1.63343 -0.80844,0.31023 -1.40927,1.12647 -1.40927,1.91452 0,0.77668 -0.30435,1.21057 -0.62456,0.89037 z m -13.61778,-0.51696 c 0.0513,-0.2662 0.31101,-0.52595 0.57722,-0.57722 0.34953,-0.0673 0.45811,0.0413 0.3908,0.3908 -0.0513,0.2662 -0.31102,0.52595 -0.57723,0.57722 -0.34953,0.0673 -0.45811,-0.0413 -0.39079,-0.3908 z m -14.66401,-1.00877 c 0.0707,-0.36957 0.24192,-0.67194 0.3806,-0.67194 0.3466,0 0.15424,1.12576 -0.213,1.24653 -0.18683,0.0614 -0.24866,-0.15053 -0.1676,-0.57459 z m 16.51953,-1.37088 c 0.059,-0.71638 0.22039,-1.04236 0.54672,-1.1042 0.3203,-0.0607 0.46302,0.0813 0.46302,0.46082 0,0.30171 -0.11907,0.54857 -0.26459,0.54857 -0.14552,0 -0.26458,0.17157 -0.26458,0.38126 0,0.20969 -0.12696,0.45973 -0.28213,0.55563 -0.18593,0.11491 -0.2536,-0.17223 -0.19844,-0.84208 z m -19.62776,-0.0948 c 0,-0.14552 0.17859,-0.26458 0.39687,-0.26458 0.21828,0 0.39688,0.11906 0.39688,0.26458 0,0.14552 -0.1786,0.26458 -0.39688,0.26458 -0.21828,0 -0.39687,-0.11906 -0.39687,-0.26458 z m 5.29166,-0.23335 c 0,-0.29105 0.11907,-0.60276 0.26459,-0.69269 0.14552,-0.0899 0.26458,0.0746 0.26458,0.36564 0,0.29104 -0.11906,0.60275 -0.26458,0.69269 -0.14552,0.0899 -0.26459,-0.0746 -0.26459,-0.36564 z m 29.14914,-0.0762 c 0.0582,-0.411 0.29282,-0.6456 0.70381,-0.70382 0.51298,-0.0727 0.60183,0.0162 0.52917,0.52917 -0.0582,0.41099 -0.29282,0.6456 -0.70382,0.70381 -0.51297,0.0727 -0.60182,-0.0162 -0.52916,-0.52916 z m -33.25732,-0.47265 c 0.086,-0.13916 0.33116,-0.18595 0.54478,-0.10398 0.54692,0.20988 0.48247,0.35701 -0.15638,0.35701 -0.29963,0 -0.47441,-0.11386 -0.3884,-0.25303 z m 18.55674,-1.65368 c -0.18363,-0.91811 -0.0326,-1.26829 0.54687,-1.26829 0.28196,0 0.36839,0.16726 0.27365,0.52953 -0.0815,0.31185 -0.0307,0.46293 0.12368,0.36751 0.15172,-0.0938 0.22492,0.091 0.17376,0.43871 -0.13627,0.92613 -0.92881,0.87831 -1.11796,-0.0675 z m 7.29224,0.27424 c 0.0582,-0.41099 0.29282,-0.64559 0.70382,-0.70381 0.51298,-0.0727 0.60182,0.0162 0.52916,0.52917 -0.0582,0.41099 -0.29282,0.6456 -0.70381,0.70381 -0.51298,0.0727 -0.60183,-0.0162 -0.52917,-0.52917 z m 13.2418,-1.90196 c 0.11331,-0.59272 0.0618,-0.61753 -1.02749,-0.49476 -0.93649,0.10556 -1.14677,0.0502 -1.14677,-0.30202 0,-0.23721 -0.1786,-0.43129 -0.39688,-0.43129 -0.30868,0 -0.39687,-0.35277 -0.39687,-1.5875 0,-1.23472 0.0882,-1.5875 0.39687,-1.5875 0.22049,0 0.39688,0.23519 0.39688,0.52917 0,0.34185 0.17638,0.52917 0.4983,0.52917 0.2758,0 0.5601,-0.2363 0.63669,-0.52917 0.0919,-0.35129 0.3609,-0.52917 0.80035,-0.52917 h 0.66197 l -0.0352,2.51354 c -0.0193,1.38245 -0.14136,2.51355 -0.27117,2.51355 -0.1298,0 -0.18233,-0.28081 -0.11672,-0.62402 z m -16.99093,-0.81522 c 0,-0.24108 -0.22782,-0.41285 -0.54757,-0.41285 -0.41651,0 -0.52733,-0.14248 -0.46302,-0.59531 0.075,-0.52828 0.25774,-0.6043 1.62269,-0.67516 l 1.53814,-0.0798 -0.0829,1.00589 c -0.0787,0.95399 -0.13413,1.01013 -1.07512,1.08801 -0.7577,0.0627 -0.99219,-0.0154 -0.99219,-0.33073 z m 3.83646,-0.41285 c 0.0899,-0.14552 0.3212,-0.26458 0.51392,-0.26458 0.19272,0 0.41267,-0.23813 0.48878,-0.52917 0.1826,-0.69825 0.98167,-0.69292 0.98167,0.007 0,0.3316 -0.25858,0.63403 -0.67868,0.79375 -0.877,0.33344 -1.51384,0.33024 -1.30569,-0.007 z m 4.67487,-0.56907 c 0.0487,-0.34229 0.30297,-0.65721 0.57213,-0.70853 0.37511,-0.0715 0.46473,0.0467 0.39688,0.52376 -0.0487,0.34229 -0.30298,0.65721 -0.57214,0.70853 -0.37511,0.0715 -0.46472,-0.0467 -0.39687,-0.52376 z m -10.31331,-2.39056 c 0.0803,-1.11447 0.10598,-1.14337 1.09042,-1.22448 l 1.00822,-0.0831 -0.0822,1.14141 c -0.0803,1.11447 -0.10598,1.14337 -1.09042,1.22448 l -1.00822,0.0831 z m -44.76469,-1.14141 c 0,-0.22048 0.23519,-0.39687 0.52917,-0.39687 0.29398,0 0.52917,0.17639 0.52917,0.39687 0,0.22049 -0.23519,0.39688 -0.52917,0.39688 -0.29398,0 -0.52917,-0.17639 -0.52917,-0.39688 z m 34.66042,0.13229 c 0,-0.14552 0.12609,-0.26458 0.2802,-0.26458 0.15411,0 0.20661,0.11906 0.11667,0.26458 -0.0899,0.14552 -0.21602,0.26459 -0.28019,0.26459 -0.0642,0 -0.11668,-0.11907 -0.11668,-0.26459 z m -39.15833,-0.33446 c 0,-0.34338 2.07769,-1.3802 2.30677,-1.15113 0.27253,0.27253 -0.25304,0.69184 -0.86718,0.69184 -0.39769,0 -0.64584,0.15249 -0.64584,0.39688 0,0.21828 -0.1786,0.39687 -0.39688,0.39687 -0.21828,0 -0.39687,-0.1505 -0.39687,-0.33446 z m 59.58016,-0.12856 c 0.0578,-0.30494 0.38054,-0.49132 0.94544,-0.54593 0.75371,-0.0728 0.85773,-0.17714 0.85773,-0.85989 0,-0.42735 -0.11906,-0.77699 -0.26458,-0.77699 -0.36846,0 -0.33156,-0.88552 0.0529,-1.27 0.17463,-0.17463 0.76994,-0.3175 1.32292,-0.3175 0.90573,0 1.00542,0.068 1.00542,0.68623 0,0.46371 -0.17159,0.7311 -0.52917,0.82461 -0.69437,0.18158 -0.68149,0.60583 0.0184,0.60583 0.41651,0 0.52733,0.14248 0.46302,0.59531 -0.0626,0.44085 -0.29049,0.61843 -0.8783,0.68441 -0.43656,0.049 -0.88896,0.25737 -1.00533,0.46302 -0.11962,0.2114 -0.61681,0.37392 -1.14388,0.37392 -0.74493,0 -0.91467,-0.093 -0.84458,-0.46302 z m 5.50734,0.0974 c 0,-0.21828 0.11906,-0.47046 0.26458,-0.5604 0.14552,-0.0899 0.26458,0.0151 0.26458,0.23335 0,0.21829 -0.11906,0.47046 -0.26458,0.5604 -0.14552,0.0899 -0.26458,-0.0151 -0.26458,-0.23335 z m -17.15275,-1.00382 c 0.064,-0.4519 0.28557,-0.63764 0.8357,-0.70066 0.65093,-0.0746 0.73721,-0.006 0.66145,0.52917 -0.064,0.4519 -0.28556,0.63764 -0.83569,0.70065 -0.65093,0.0746 -0.73721,0.006 -0.66146,-0.52916 z m 20.06316,-1.80554 c 0,-0.44097 -0.17639,-0.52916 -1.05833,-0.52916 -0.76435,0 -1.05833,-0.11025 -1.05833,-0.39688 0,-0.21828 -0.10633,-0.39687 -0.23628,-0.39687 -0.12995,0 -0.30481,0.17859 -0.38857,0.39687 -0.20557,0.53571 -1.22724,0.51509 -1.22724,-0.0248 0,-0.2319 0.23813,-0.48392 0.52917,-0.56002 0.37648,-0.0985 0.52917,-0.3609 0.52917,-0.90958 0,-0.44143 0.1697,-0.83632 0.39687,-0.92349 0.29966,-0.11499 0.39688,-0.59901 0.39688,-1.97607 v -1.82378 h 1.04902 c 0.76635,0 1.12283,0.13791 1.32292,0.51178 0.3574,0.66781 0.36584,7.16114 0.009,7.16114 -0.14553,0 -0.26459,-0.23813 -0.26459,-0.52917 z m -68.92396,-0.26458 c -0.0899,-0.14552 -0.0374,-0.26458 0.11668,-0.26458 0.15411,0 0.2802,0.11906 0.2802,0.26458 0,0.14552 -0.0525,0.26458 -0.11668,0.26458 -0.0642,0 -0.19026,-0.11906 -0.2802,-0.26458 z m 53.88832,-0.71028 c 0.0655,-0.34539 0.3756,-0.5038 1.10381,-0.56382 0.85844,-0.0708 0.99885,-0.0103 0.92164,0.39688 -0.0655,0.34539 -0.3756,0.5038 -1.10381,0.56382 -0.85844,0.0708 -0.99885,0.0103 -0.92164,-0.39688 z m 2.2695,-1.58162 c 0.1819,-0.0734 0.47955,-0.0734 0.66146,0 0.1819,0.0734 0.0331,0.13346 -0.33073,0.13346 -0.36381,0 -0.51263,-0.0601 -0.33073,-0.13346 z m 0,-1.05833 c 0.1819,-0.0734 0.47955,-0.0734 0.66146,0 0.1819,0.0734 0.0331,0.13345 -0.33073,0.13345 -0.36381,0 -0.51263,-0.0601 -0.33073,-0.13345 z m -6.15157,-1.60094 c -1.39842,-0.33636 -1.03765,-1.31703 0.37073,-1.0077 0.56969,0.12513 0.8199,0.33515 0.8199,0.68823 0,0.50743 -0.19343,0.55933 -1.19063,0.31947 z m 0.1323,-2.87344 c 0,-0.24639 0.18001,-0.38136 0.44109,-0.33073 0.66378,0.12874 0.75492,0.74701 0.11012,0.74701 -0.325,0 -0.55121,-0.17084 -0.55121,-0.41628 z m 0,-4.08164 c 0,-0.29104 0.11906,-0.52917 0.26458,-0.52917 0.14552,0 0.26458,0.23813 0.26458,0.52917 0,0.29104 -0.11906,0.52917 -0.26458,0.52917 -0.14552,0 -0.26458,-0.23813 -0.26458,-0.52917 z M 85.80772,132.7718 c 0.190996,-0.0764 0.419199,-0.067 0.507118,0.0209 0.08792,0.0879 -0.06835,0.15046 -0.347265,0.13897 -0.308225,-0.0127 -0.37092,-0.0754 -0.159853,-0.15985 z m -2.310752,-0.50277 c 0.0127,-0.30823 0.07539,-0.37092 0.159852,-0.15985 0.07643,0.19099 0.06703,0.4192 -0.02089,0.50711 -0.08792,0.0879 -0.150453,-0.0684 -0.138964,-0.34726 z m 67.844732,-1.69774 c 0.19958,-0.6288 -0.0194,-0.67989 -0.56696,-0.1323 -0.52893,0.52893 -0.89015,0.50178 -0.87983,-0.0661 0.0162,-0.89333 0.66102,-1.38906 1.80669,-1.38906 0.8072,0 1.09531,0.10658 1.09531,0.40518 0,0.22284 -0.17859,0.47371 -0.39687,0.55747 -0.21828,0.0838 -0.39688,0.37768 -0.39688,0.65315 0,0.27839 -0.1842,0.50086 -0.4147,0.50086 -0.2943,0 -0.36594,-0.15364 -0.24676,-0.52916 z m -68.614402,-1.10331 c 0.05822,-0.41099 0.29282,-0.64559 0.703813,-0.70381 0.512978,-0.0727 0.601828,0.0162 0.529167,0.52917 -0.05822,0.41099 -0.29282,0.6456 -0.703813,0.70381 -0.512978,0.0727 -0.601828,-0.0162 -0.529167,-0.52917 z m -0.04497,-1.9394 c 0,-0.63948 0.07717,-0.68702 0.992187,-0.61129 0.788426,0.0653 0.992188,0.19079 0.992188,0.61129 0,0.42049 -0.203762,0.54603 -0.992188,0.61128 -0.915022,0.0757 -0.992187,0.0282 -0.992187,-0.61128 z m 38.299812,-0.62582 c -0.11364,-0.88587 -0.35951,-1.55414 -0.65398,-1.77752 -0.44276,-0.33588 -0.43629,-0.35848 0.10484,-0.36637 0.52883,-0.008 0.56995,-0.12377 0.49518,-1.39748 -0.11645,-1.98366 0.12555,-3.63802 0.53217,-3.63802 0.18783,0 0.39596,0.20836 0.46251,0.46302 0.11524,0.44097 0.12246,0.44097 0.15169,0 0.0169,-0.25466 0.15165,-0.46302 0.29948,-0.46302 0.14783,0 0.24358,-0.33083 0.21277,-0.73518 -0.0599,-0.78613 0.19181,-1.38149 0.58409,-1.38149 0.13237,0 0.18001,0.15806 0.10588,0.35125 -0.237,0.61761 0.35965,1.71956 0.99703,1.84141 0.39452,0.0754 0.25953,0.12924 -0.38262,0.15256 -0.91803,0.0333 -0.99218,0.0954 -0.99218,0.82978 0,0.43657 -0.11907,0.79375 -0.26459,0.79375 -0.14552,0 -0.26458,0.42946 -0.26458,0.95435 0,0.65518 -0.10368,0.91433 -0.33073,0.82669 -0.25082,-0.0968 -0.3097,0.34381 -0.24368,1.82377 0.0533,1.19425 -0.0166,1.95144 -0.18004,1.95144 -0.14689,0 -0.30849,0.26789 -0.35911,0.59532 -0.0506,0.32742 -0.17398,-0.0435 -0.27413,-0.82426 z m 31.85655,0.75811 c 0,-0.3638 0.06,-0.51263 0.13345,-0.33073 0.0734,0.1819 0.0734,0.47956 0,0.66146 -0.0734,0.1819 -0.13345,0.0331 -0.13345,-0.33073 z m -0.99308,-1.3638 c -0.11697,-0.18925 -0.0726,-0.23364 0.11667,-0.11667 0.18282,0.11299 0.30547,0.0169 0.30547,-0.23932 0,-0.23546 0.11906,-0.35452 0.26458,-0.26459 0.14552,0.0899 0.26458,0.33509 0.26458,0.54479 0,0.455 -0.68329,0.50945 -0.9513,0.0758 z M 86.386494,125.6949 c 0,-0.37393 0.127567,-0.67986 0.283482,-0.67986 0.155916,0 0.467746,-0.18427 0.692957,-0.40948 0.559176,-0.55917 0.684019,-0.34371 0.412068,0.71119 -0.16027,0.62169 -0.403417,0.91433 -0.808833,0.97346 -0.46805,0.0683 -0.579674,-0.0464 -0.579674,-0.59531 z m 73.703256,0.40564 c -0.0807,-0.13057 -0.0717,-0.61247 0.02,-1.07088 0.24027,-1.20134 0.9957,-0.98347 1.10368,0.31831 0.0698,0.84117 0.003,0.98998 -0.4474,0.98998 -0.29124,0 -0.59555,-0.10683 -0.67625,-0.23741 z m -69.999089,-1.20218 c 0,-0.20969 0.107959,-0.44798 0.239909,-0.52953 0.131949,-0.0816 0.177594,0.09 0.101432,0.38126 -0.161558,0.6178 -0.341341,0.69589 -0.341341,0.14827 z m 67.336459,-0.67707 c -0.0899,-0.14552 0.0816,-0.26459 0.38126,-0.26459 0.29963,0 0.54478,0.11907 0.54478,0.26459 0,0.14552 -0.17156,0.26458 -0.38126,0.26458 -0.20969,0 -0.45484,-0.11906 -0.54478,-0.26458 z m -37.24562,-0.95361 c -0.1061,-0.10611 -0.19292,-0.37548 -0.19292,-0.59862 0,-0.29781 0.0783,-0.32742 0.29435,-0.11134 0.16189,0.16189 0.24871,0.43127 0.19292,0.59862 -0.0558,0.16735 -0.18824,0.21745 -0.29435,0.11134 z m 38.12632,-0.89848 c 0.10209,-1.07053 0.37172,-1.33185 0.75073,-0.7276 0.39107,0.62346 -0.0645,1.76304 -0.71238,1.78188 -0.0766,0.002 -0.0939,-0.47219 -0.0383,-1.05428 z m -35.0262,-0.28763 c -0.0978,-0.1582 -0.0453,-0.42014 0.11668,-0.58209 0.21621,-0.2162 0.29445,-0.13977 0.29445,0.28764 0,0.63884 -0.13744,0.73727 -0.41113,0.29445 z m 31.25703,0.0586 c -0.11397,-0.18441 -0.13577,-0.40675 -0.0484,-0.49409 0.23679,-0.23679 0.49497,0.11147 0.36708,0.49516 -0.0896,0.26886 -0.15194,0.26865 -0.31864,-10e-4 z m 0.11035,-1.09384 c 0,-0.14552 0.11203,-0.26459 0.24896,-0.26459 0.13694,0 0.32256,0.11907 0.41249,0.26459 0.0899,0.14552 -0.0221,0.26458 -0.24896,0.26458 -0.22687,0 -0.41249,-0.11906 -0.41249,-0.26458 z m 0.94474,-1.02808 c -0.0797,-0.12888 0.14057,-0.28889 0.48939,-0.35557 0.4537,-0.0867 0.59538,-0.02 0.49778,0.23433 -0.15403,0.40138 -0.76747,0.47672 -0.98717,0.12124 z m 1.84468,-0.012 c -0.0837,-0.13547 -0.0312,-0.32109 0.11668,-0.41249 0.31574,-0.19515 0.79806,0.0525 0.79806,0.40982 0,0.32194 -0.71612,0.32403 -0.91474,0.003 z m -3.58317,-0.70179 c 0,-0.23041 0.14138,-0.3718 0.31419,-0.3142 0.4906,0.16354 0.57196,0.73312 0.10473,0.73312 -0.23041,0 -0.41892,-0.18852 -0.41892,-0.41892 z m -53.44584,-0.904 c 0,-0.14552 0.1786,-0.26458 0.39688,-0.26458 0.21828,0 0.39687,0.11906 0.39687,0.26458 0,0.14552 -0.17859,0.26459 -0.39687,0.26459 -0.21828,0 -0.39688,-0.11907 -0.39688,-0.26459 z m 68.2625,0 c 0,-0.14552 0.11204,-0.26458 0.24897,-0.26458 0.13693,0 0.32255,0.11906 0.41249,0.26458 0.0899,0.14552 -0.0221,0.26459 -0.24897,0.26459 -0.22687,0 -0.41249,-0.11907 -0.41249,-0.26459 z m -44.87995,-1.35599 c 0.091,-0.45475 0.16537,-0.931 0.16537,-1.05833 0,-0.12733 0.17859,-0.23151 0.39687,-0.23151 0.28664,0 0.39688,0.29398 0.39688,1.05833 0,0.9027 -0.0827,1.05834 -0.56224,1.05834 -0.4886,0 -0.54058,-0.1083 -0.39688,-0.82683 z M 122.899,116.2838 c 0,-0.29399 0.17638,-0.52917 0.39687,-0.52917 0.22049,0 0.39688,0.23518 0.39688,0.52917 0,0.29398 -0.17639,0.52916 -0.39688,0.52916 -0.22049,0 -0.39687,-0.23518 -0.39687,-0.52916 z m 31.2472,-0.46302 c 0.0235,-0.88549 0.0492,-0.92106 0.23821,-0.33073 0.30289,0.94576 0.30289,1.32291 0,1.32291 -0.14552,0 -0.25271,-0.44648 -0.23821,-0.99218 z m 1.31743,0.57326 c 0.0127,-0.30823 0.0754,-0.37092 0.15986,-0.15985 0.0764,0.19099 0.067,0.4192 -0.0209,0.50712 -0.0879,0.0879 -0.15045,-0.0684 -0.13897,-0.34727 z m 1.30608,-0.17639 c 0.003,-0.48139 0.0531,-0.51937 0.26054,-0.19844 0.3315,0.51297 0.3315,0.79375 0,0.79375 -0.14552,0 -0.26276,-0.26789 -0.26054,-0.59531 z m 1.00468,-0.11459 c 0.19099,-0.0764 0.4192,-0.067 0.50711,0.0209 0.0879,0.0879 -0.0684,0.15046 -0.34726,0.13897 -0.30823,-0.0127 -0.37092,-0.0754 -0.15985,-0.15985 z M 92.339619,114.6963 c 0.08994,-0.14552 0.275558,-0.26459 0.41249,-0.26459 0.136933,0 0.248969,0.11907 0.248969,0.26459 0,0.14552 -0.185621,0.26458 -0.41249,0.26458 -0.22687,0 -0.338906,-0.11906 -0.248969,-0.26458 z m 32.411461,-1.05834 c 0,-0.35277 0.17639,-0.52916 0.52917,-0.52916 0.29398,0 0.52916,-0.17639 0.52916,-0.39688 0,-0.21828 0.1786,-0.39687 0.39688,-0.39687 0.21828,0 0.39687,0.17859 0.39687,0.39687 0,0.21828 0.11907,0.39688 0.26459,0.39688 0.42704,0 0.30319,0.72231 -0.15394,0.89773 -0.23018,0.0883 -0.76596,0.1606 -1.19062,0.1606 -0.59572,0 -0.77211,-0.12089 -0.77211,-0.52917 z m 34.26354,0.26459 c -0.0899,-0.14552 -0.0374,-0.26459 0.11668,-0.26459 0.15411,0 0.2802,0.11907 0.2802,0.26459 0,0.14552 -0.0525,0.26458 -0.11668,0.26458 -0.0642,0 -0.19026,-0.11906 -0.2802,-0.26458 z m -0.7311,-4.82865 c -0.12668,-1.28467 -0.0727,-1.77221 0.16609,-1.4993 0.23648,0.2703 0.42765,2.88836 0.21091,2.88836 -0.13202,0 -0.30167,-0.62508 -0.377,-1.38906 z m -4.16369,0.7276 c 0,-0.21828 0.0468,-0.39687 0.10398,-0.39687 0.0572,0 0.17252,0.17859 0.25628,0.39687 0.0838,0.21829 0.037,0.39688 -0.10398,0.39688 -0.14096,0 -0.25628,-0.17859 -0.25628,-0.39688 z m -23.18573,-1.2413 c 0.0269,-0.53752 0.13505,-1.06338 0.24025,-1.16858 0.25923,-0.25922 0.20835,0.95799 -0.0676,1.61671 -0.16827,0.40171 -0.20986,0.29376 -0.17268,-0.44813 z m 25.68195,-0.53235 c -0.11217,-0.35342 -0.067,-0.62301 0.11446,-0.68351 0.43881,-0.14626 0.36592,-0.58496 -0.0972,-0.58496 -0.21828,0 -0.39687,0.1865 -0.39687,0.41445 0,0.5836 -1.38631,0.39733 -1.47158,-0.19773 -0.0427,-0.29783 0.27723,-0.58116 0.9685,-0.85775 1.09538,-0.43829 1.38769,-0.7253 0.50308,-0.49397 -0.45714,0.11954 -0.52917,0.008 -0.52917,-0.81852 0,-0.78051 -0.0975,-0.9569 -0.52917,-0.9569 -0.46502,0 -0.52916,-0.17639 -0.52916,-1.45521 0,-1.27882 0.0641,-1.45521 0.52916,-1.45521 0.35278,0 0.52917,0.17639 0.52917,0.52917 0,0.29398 0.17639,0.52917 0.39687,0.52917 0.27719,0 0.39688,0.27928 0.39688,0.92604 0,0.75649 0.0991,0.92604 0.54115,0.92604 0.47517,0 0.51998,0.11292 0.36743,0.92604 -0.15398,0.82078 -0.11023,0.92604 0.38489,0.92604 0.67835,0 0.72707,0.47994 0.0956,0.94169 -0.46126,0.33729 -0.49946,0.43508 -0.56224,1.43956 -0.0442,0.70712 -0.48069,0.67374 -0.71181,-0.0544 z m 9.32179,-0.12195 c -0.30443,-0.30443 -0.19268,-0.61736 0.22049,-0.61736 0.21828,0 0.39688,0.1786 0.39688,0.39688 0,0.41316 -0.31293,0.52492 -0.61737,0.22048 z m -11.81805,-2.73402 c 0,-0.29105 0.11906,-0.52917 0.26458,-0.52917 0.14552,0 0.26459,0.23812 0.26459,0.52917 0,0.29104 -0.11907,0.52916 -0.26459,0.52916 -0.14552,0 -0.26458,-0.23812 -0.26458,-0.52916 z m -71.4375,-1.05834 c 0,-0.14552 0.178593,-0.26458 0.396875,-0.26458 0.218281,0 0.396875,0.11906 0.396875,0.26458 0,0.14552 -0.178594,0.26459 -0.396875,0.26459 -0.218282,0 -0.396875,-0.11907 -0.396875,-0.26459 z m 4.497916,-0.74965 c 0,-0.35241 0.165382,-0.57326 0.429272,-0.57326 0.367452,0 0.378234,0.0667 0.07487,0.46302 -0.194922,0.25466 -0.388095,0.51263 -0.429272,0.57326 -0.04118,0.0606 -0.07487,-0.14772 -0.07487,-0.46302 z m 65.764804,-0.0341 c -0.1368,-0.21277 -0.22237,-0.77831 -0.19015,-1.25677 0.0475,-0.70584 -0.0386,-0.86992 -0.45682,-0.86992 -0.28347,0 -0.56549,-0.14883 -0.62672,-0.33073 -0.0874,-0.25959 -0.2036,-0.25456 -0.54038,0.0234 -0.27074,0.22346 -0.71664,0.29097 -1.20846,0.18295 -0.45064,-0.099 -0.85241,-0.053 -0.95249,0.10889 -0.0952,0.15404 -0.52326,0.28007 -0.95123,0.28007 -0.51529,0 -0.77814,0.13406 -0.77814,0.39687 0,0.24695 -0.24988,0.39688 -0.66146,0.39688 -0.3638,0 -0.66145,-0.0762 -0.66145,-0.16927 0,-0.33582 0.94015,-0.87298 1.5875,-0.90702 l 0.66145,-0.0348 -0.66145,-0.21184 -0.66146,-0.21183 0.66146,-0.0348 c 0.3638,-0.0191 0.89257,-0.2096 1.17504,-0.42325 0.58369,-0.441474 2.1505,-0.522453 2.39683,-0.12388 0.0899,0.14552 0.49356,0.26459 0.89695,0.26459 0.49612,0 0.8396,0.19838 1.06157,0.61314 0.39019,0.72907 0.30412,2.92118 -0.0906,2.3073 z M 82.68229,102.6583 c 0,-0.48506 0.141111,-0.66145 0.529166,-0.66145 0.616541,0 0.743362,-0.91953 0.157812,-1.14422 -0.768401,-0.29487 -1.428805,0.12303 -1.595078,1.00934 -0.121252,0.64633 -0.338189,0.91843 -0.830795,1.04207 -0.886154,0.22241 -1.043728,0.0885 -1.122109,-0.95322 -0.03642,-0.48401 -0.181493,-0.9197 -0.322395,-0.96821 -0.140901,-0.0485 -0.256185,-1.030772 -0.256185,-2.182812 V 96.70521 l 0.859896,-0.03069 c 0.472943,-0.01688 0.651537,-0.08514 0.396875,-0.151692 -0.522834,-0.136631 -0.643745,-1.154945 -0.132292,-1.114159 0.181901,0.0145 0.624137,0.108167 0.982747,0.208137 0.588484,0.164053 0.644683,0.301042 0.576742,1.405858 -0.05122,0.832881 0.03636,1.261581 0.274024,1.341389 0.192115,0.06451 0.133931,0.08416 -0.129298,0.04367 -0.376429,-0.0579 -0.461152,0.07729 -0.396875,0.633287 0.0569,0.492163 0.25673,0.731826 0.657821,0.788937 0.316854,0.04512 0.718386,0.253473 0.892293,0.463023 0.173907,0.20954 0.539741,0.38099 0.812964,0.38099 0.273224,0 0.49677,0.11906 0.49677,0.26458 0,0.14552 0.178594,0.26459 0.396875,0.26459 0.260949,0 0.396875,0.26109 0.396875,0.76234 0,0.68125 -0.125028,0.79382 -1.175496,1.05833 -1.529249,0.38507 -1.470337,0.39971 -1.470337,-0.36547 z m -0.07166,-2.40881 c -0.08792,-0.0879 -0.316122,-0.0973 -0.507118,-0.0209 -0.211067,0.0845 -0.148372,0.14715 0.159852,0.15985 0.278915,0.0115 0.435184,-0.0511 0.347266,-0.13897 z m -1.885157,-1.091402 c -0.268953,-0.268953 -0.490867,0.135967 -0.270197,0.493019 0.166697,0.269721 0.229018,0.26993 0.318639,0.0011 0.06128,-0.183829 0.03948,-0.406167 -0.04844,-0.494086 z m 9.563585,1.076032 c 0.181901,-0.0734 0.479558,-0.0734 0.661459,0 0.181901,0.0734 0.03307,0.13345 -0.330729,0.13345 -0.363803,0 -0.512631,-0.06 -0.33073,-0.13345 z m 57.166542,-0.006 c 0.19099,-0.0764 0.4192,-0.067 0.50711,0.0209 0.0879,0.0879 -0.0683,0.15046 -0.34726,0.13897 -0.30823,-0.0127 -0.37092,-0.0754 -0.15985,-0.15985 z M 87.90781,99.697826 c -0.553613,-0.144674 -0.620937,-0.611366 -0.08819,-0.611366 0.206154,0 0.415237,-0.121233 0.464628,-0.269406 0.04939,-0.148173 0.714157,-0.343351 1.477257,-0.433729 1.176128,-0.139295 1.387455,-0.09826 1.387455,0.269406 0,0.30653 -0.235217,0.433729 -0.802054,0.433729 -0.468861,0 -0.865321,0.164871 -0.954349,0.396875 -0.150022,0.390951 -0.574722,0.452304 -1.484743,0.214491 z m 4.30111,-1.471262 c -0.0012,-0.70628 0.112733,-0.992187 0.395245,-0.992187 0.49954,0 0.4999,0.271136 0.0016,1.226527 l -0.395245,0.757848 z m 68.09683,-0.318059 c -0.0811,-0.211313 -0.0703,-0.508969 0.0239,-0.661458 0.30816,-0.49862 0.66929,-0.291316 0.66929,0.384205 0,0.717254 -0.4546,0.899072 -0.69321,0.277253 z"
         id="path117654" /><path
         style="fill:#794eb6"
         d="m 123.37851,176.42864 c 0.191,-0.0764 0.4192,-0.067 0.50712,0.0209 0.0879,0.0879 -0.0684,0.15046 -0.34726,0.13897 -0.30823,-0.0127 -0.37092,-0.0754 -0.15986,-0.15985 z m 4.06994,-3.39114 c 0.005,-0.43656 0.0647,-0.58312 0.13178,-0.32569 0.0671,0.25743 0.0627,0.61462 -0.01,0.79375 -0.0725,0.17913 -0.12736,-0.0315 -0.12197,-0.46806 z m -8.72144,-23.68021 c 0,-0.50932 0.0544,-0.71768 0.121,-0.46302 0.0665,0.25466 0.0665,0.67138 0,0.92604 -0.0666,0.25467 -0.121,0.0463 -0.121,-0.46302 z m -6.54368,-0.4127 c -0.58208,-0.20463 -0.76068,-0.31244 -0.39687,-0.23959 0.3638,0.0729 1.39238,0.20588 2.28573,0.2956 1.54013,0.15469 1.64762,0.12752 2.07487,-0.52455 0.4248,-0.64833 0.42428,-0.76772 -0.009,-2.08604 -1.01877,-3.09876 -4.13389,-7.76284 -7.53156,-11.27656 -1.17176,-1.21178 -1.97739,-2.11272 -1.79029,-2.00209 3.63463,2.1491 7.29264,5.42972 9.11671,8.17614 0.57989,0.87313 1.12354,1.7661 1.20811,1.98438 0.0846,0.21828 0.34477,0.84336 0.57822,1.38906 0.67298,1.57315 0.30478,1.15342 -0.59946,-0.68335 -0.45368,-0.92155 -1.12486,-1.99925 -1.49153,-2.39488 -0.36666,-0.39564 -0.66666,-0.86483 -0.66666,-1.04265 0,-0.42142 -4.01375,-4.41193 -4.43763,-4.41193 -0.17868,0 -0.32487,-0.10633 -0.32487,-0.23628 0,-0.12995 -0.20816,-0.31615 -0.46258,-0.41378 -0.29872,-0.11463 -0.18157,0.13218 0.33073,0.69676 0.43632,0.48084 0.8826,0.91509 0.99174,0.96499 0.10914,0.0499 0.19844,0.25941 0.19844,0.46556 0,0.20616 0.16415,0.37483 0.36478,0.37483 0.20062,0 0.51272,0.35719 0.69355,0.79375 0.18083,0.43656 0.4334,0.79375 0.56127,0.79375 0.12786,0 0.23248,0.11879 0.23248,0.26397 0,0.14518 0.41672,0.84401 0.92604,1.55295 0.50933,0.70894 0.92605,1.4732 0.92605,1.69836 0,0.22515 0.0936,0.44906 0.20803,0.49757 0.32756,0.13887 1.64405,3.36454 1.64405,4.02826 0,0.32884 -0.27556,0.85678 -0.61237,1.17319 -0.72302,0.67924 -2.3597,0.74547 -4.01784,0.16258 z m -2.74099,-0.68458 c -0.4889,-0.14069 -0.83757,-0.30714 -0.77483,-0.36988 0.0628,-0.0627 0.64135,0.0513 1.28579,0.2535 1.31578,0.4128 0.87105,0.51409 -0.51096,0.11638 z m -2.68297,-1.01938 c -0.21828,-0.14107 -0.27781,-0.25648 -0.13229,-0.25648 0.14552,0 0.44318,0.11541 0.66146,0.25648 0.21828,0.14106 0.27781,0.25648 0.13229,0.25648 -0.14552,0 -0.44318,-0.11542 -0.66146,-0.25648 z m 11.57001,0.10473 c -0.10611,-0.10611 -0.18538,-0.50051 -0.17615,-0.87644 l 0.0168,-0.6835 0.25537,0.63879 c 0.27519,0.68838 0.2182,1.23533 -0.096,0.92115 z m -14.21827,-1.2507 c -2.84396,-1.32472 -5.868714,-4.39892 -7.267905,-7.3867 -1.699561,-3.62919 -1.98514,-4.94532 -1.966335,-9.06213 0.0094,-2.06452 0.157329,-4.17 0.334123,-4.75654 0.414548,-1.37535 1.691918,-2.26666 3.186986,-2.22379 l 1.085352,0.0311 -1.287141,0.21587 c -2.603347,0.43662 -3.22888,2.05323 -3.01459,7.79077 0.133474,3.57371 0.505042,5.0369 2.046269,8.05795 1.364201,2.67406 4.308271,5.69138 6.821081,6.99081 0.47209,0.24412 0.85834,0.50034 0.85834,0.56936 0,0.15006 0.0327,0.15936 -0.79618,-0.22672 z m 23.63233,-2.16133 c 10e-4,-0.87312 0.0509,-1.19841 0.10977,-0.72286 0.0589,0.47555 0.0577,1.18992 -0.003,1.5875 -0.0604,0.39758 -0.10855,0.008 -0.10707,-0.86464 z m 2.86855,-1.16023 c -0.19622,-0.12435 -0.31529,-0.41864 -0.26459,-0.65398 0.0696,-0.32296 0.16717,-0.26653 0.39802,0.23015 0.16821,0.36191 0.28727,0.6562 0.26458,0.65397 -0.0227,-0.002 -0.2018,-0.10579 -0.39801,-0.23014 z m 2.82069,0.0534 c 0.191,-0.0764 0.4192,-0.067 0.50712,0.0209 0.0879,0.0879 -0.0683,0.15045 -0.34727,0.13896 -0.30822,-0.0127 -0.37092,-0.0754 -0.15985,-0.15985 z m 1.90169,-0.72489 c 0.73719,-0.44416 1.31696,-0.56004 0.91282,-0.18244 -0.13825,0.12917 -0.54902,0.31273 -0.91282,0.40791 l -0.66146,0.17307 z m -7.34572,-0.81416 c 0,-0.43656 0.0909,-1.15094 0.20197,-1.5875 l 0.20198,-0.79375 V 139.7 c 0,0.43656 -0.0909,1.15094 -0.20198,1.5875 l -0.20197,0.79375 z m 9.72697,-0.26458 c 0.3638,-0.20797 0.78052,-0.37813 0.92604,-0.37813 0.14553,0 -0.0331,0.17016 -0.39687,0.37813 -0.3638,0.20797 -0.78052,0.37812 -0.92604,0.37812 -0.14552,0 0.0331,-0.17015 0.39687,-0.37812 z m 1.32292,-0.46877 c 0,-0.0633 0.8632,-0.68871 1.91823,-1.38984 2.50437,-1.66432 4.7196,-3.78699 6.31824,-6.05424 0.70869,-1.00509 1.27983,-1.71946 1.26919,-1.5875 -0.0451,0.5594 -1.8869,3.03309 -3.42024,4.59363 -1.5012,1.52783 -6.08542,4.87099 -6.08542,4.43795 z m -8.73125,-0.83853 c 0,-0.35522 0.0975,-0.70612 0.21671,-0.77978 0.11919,-0.0737 0.16521,0.21697 0.10226,0.64584 -0.13878,0.94559 -0.31897,1.02125 -0.31897,0.13394 z m -7.63259,-2.207 c -0.17836,-0.69594 -0.61212,-1.88656 -0.96389,-2.64583 -0.35178,-0.75927 -0.55577,-1.37929 -0.45333,-1.37781 0.10245,0.001 0.38579,0.47773 0.62964,1.05834 0.24385,0.5806 0.58402,1.05564 0.75591,1.05564 0.1719,0 0.25455,-0.15112 0.18367,-0.33583 -0.0709,-0.18471 -0.0378,-0.80979 0.0736,-1.38907 0.14858,-0.77307 0.21052,-0.26147 0.23285,1.92334 0.0167,1.63711 -0.007,2.97656 -0.0518,2.97656 -0.0453,0 -0.22821,-0.5694 -0.40657,-1.26534 z m 6.01365,-0.11541 c 0.1218,-0.73473 0.15907,-0.77199 0.24238,-0.24238 0.0541,0.34421 -0.0106,0.7349 -0.14394,0.86821 -0.14678,0.14678 -0.18561,-0.10005 -0.0984,-0.62583 z m 2.16899,0.16808 c 0.0127,-0.30823 0.0754,-0.37092 0.15986,-0.15986 0.0764,0.191 0.067,0.4192 -0.0209,0.50712 -0.0879,0.0879 -0.15045,-0.0683 -0.13897,-0.34726 z m -1.6795,-1.98354 c 0.0936,-0.35777 0.21349,-0.4777 0.27955,-0.27954 0.0636,0.19088 -0.0101,0.47285 -0.16387,0.6266 -0.19633,0.19634 -0.23077,0.093 -0.11568,-0.34706 z m 2.45237,-0.62463 c 0,-0.2097 0.10795,-0.44799 0.2399,-0.52954 0.13195,-0.0815 0.1776,0.09 0.10144,0.38126 -0.16156,0.6178 -0.34134,0.6959 -0.34134,0.14828 z m -1.95229,-0.67708 c 0.30841,-1.20263 1.12942,-3.05122 1.14411,-2.57609 0.008,0.25663 -0.0904,0.67335 -0.21844,0.92604 -0.12807,0.25268 -0.42691,0.87615 -0.66408,1.38547 -0.26265,0.56404 -0.36491,0.66747 -0.26159,0.26458 z m -8.89563,-1.25822 c 0,-0.15845 -0.82305,-1.13768 -1.829,-2.17607 -1.00595,-1.03839 -1.51807,-1.68425 -1.13805,-1.43526 1.29385,0.84777 3.45191,3.41455 3.13624,3.73023 -0.0931,0.0931 -0.16919,0.0395 -0.16919,-0.1189 z m 11.9103,-0.90897 c -0.002,-0.24608 0.11501,-0.521 0.26053,-0.61093 0.33486,-0.20695 0.33486,0.1433 0,0.66146 -0.22103,0.34202 -0.25704,0.33504 -0.26053,-0.0505 z m -1.46713,-1.8677 c 0.50647,-1.20308 1.76902,-3.42027 1.88282,-3.30647 0.10617,0.10616 -1.98123,4.16636 -2.14197,4.16636 -0.0566,0 0.0601,-0.38695 0.25915,-0.85989 z m 2.00457,0.82738 c -0.0248,-0.33146 1.09413,-2.6534 1.21863,-2.52889 0.0706,0.0706 -0.17191,0.70559 -0.53895,1.41105 -0.36705,0.70545 -0.67291,1.20848 -0.67968,1.11784 z m -10.26969,-1.2904 c 0,-0.50933 0.0545,-0.71769 0.121,-0.46302 0.0666,0.25466 0.0666,0.67138 0,0.92604 -0.0665,0.25466 -0.121,0.0463 -0.121,-0.46302 z m 26.28167,0.18702 c 0.0994,-0.26093 0.2473,-0.40778 0.32876,-0.32632 0.0815,0.0815 1.7e-4,0.29496 -0.18065,0.47444 -0.26131,0.25936 -0.2917,0.22897 -0.14811,-0.14812 z m -34.2418,-2.16147 c -1.70754,-1.08804 -1.83891,-1.20662 -1.13193,-1.02174 0.30067,0.0786 0.68422,0.30868 0.85232,0.51124 0.16811,0.20255 0.42112,0.36828 0.56225,0.36828 0.14113,0 0.55933,0.23812 0.92933,0.52917 1.05952,0.83342 0.34543,0.60543 -1.21197,-0.38695 z m 35.35764,-0.2874 c 0.24533,-0.66194 0.48058,-1.09995 0.52277,-0.97337 0.0849,0.25457 -0.66817,2.17688 -0.85275,2.17688 -0.0638,0 0.0846,-0.54158 0.32998,-1.20351 z m -15.81723,0.55221 c 0,-0.28691 1.59335,-3.05286 1.75863,-3.05286 0.0728,0 -0.25308,0.68461 -0.72409,1.52135 -0.97535,1.7327 -1.03454,1.82032 -1.03454,1.53151 z m -11.09161,-1.6197 c 0.0127,-0.30823 0.0754,-0.37092 0.15985,-0.15986 0.0764,0.191 0.067,0.4192 -0.0209,0.50712 -0.0879,0.0879 -0.15046,-0.0683 -0.13897,-0.34726 z m 10.72473,-1.36702 c 1.31228,-2.05333 3.6703,-4.886 5.67142,-6.81302 1.77137,-1.70579 1.78177,-1.64165 0.12864,0.79375 -1.26622,1.8654 -2.16068,3.29917 -2.97107,4.7625 -0.32236,0.58208 -0.59149,0.92312 -0.59807,0.75785 -0.015,-0.37652 0.47168,-1.31086 1.24482,-2.38992 0.32742,-0.45697 0.59531,-0.92217 0.59531,-1.03377 0,-0.1116 0.19771,-0.42137 0.43935,-0.68838 0.24164,-0.26702 0.36237,-0.56246 0.26829,-0.65654 -0.0941,-0.0941 -0.39665,0.115 -0.67237,0.46464 -0.27572,0.34964 -0.93223,1.10546 -1.45892,1.6796 -0.52668,0.57414 -0.9576,1.12116 -0.9576,1.21561 0,0.0944 -0.3025,0.51767 -0.67222,0.94049 -0.36973,0.42281 -0.85954,1.15571 -1.08848,1.62865 -0.22895,0.47294 -0.52542,0.8599 -0.65883,0.8599 -0.13341,0 0.19497,-0.68461 0.72973,-1.52136 z m -22.65187,0.93908 c -0.3638,-0.15628 -1.61396,-0.62726 -2.77812,-1.04664 -1.16417,-0.41937 -1.69995,-0.68503 -1.19063,-0.59036 0.99589,0.18511 5.02709,1.66506 5.02709,1.84556 0,0.16836 -0.33426,0.10249 -1.05834,-0.20856 z m 39.61639,-0.49727 c 0.0936,-0.35777 0.21349,-0.4777 0.27954,-0.27954 0.0636,0.19088 -0.0101,0.47285 -0.16386,0.6266 -0.19634,0.19634 -0.23077,0.093 -0.11568,-0.34706 z M 123.69271,124.943 c 0,-0.37947 0.12383,-0.76648 0.27518,-0.86002 0.1805,-0.11155 0.21321,0.0879 0.0951,0.5797 -0.24353,1.01373 -0.37026,1.10967 -0.37026,0.28032 z m -17.7767,-0.90191 c 0.191,-0.0764 0.4192,-0.067 0.50712,0.0209 0.0879,0.0879 -0.0683,0.15046 -0.34726,0.13897 -0.30823,-0.0127 -0.37092,-0.0754 -0.15986,-0.15985 z m -1.05833,-0.26459 c 0.191,-0.0764 0.4192,-0.067 0.50712,0.0209 0.0879,0.0879 -0.0684,0.15045 -0.34727,0.13896 -0.30822,-0.0127 -0.37092,-0.0754 -0.15985,-0.15985 z m -1.33945,-0.25907 c 0.1819,-0.0734 0.47955,-0.0734 0.66146,0 0.1819,0.0734 0.0331,0.13345 -0.33073,0.13345 -0.36381,0 -0.51263,-0.0601 -0.33073,-0.13345 z m -2.4474,-0.35394 -1.05833,-0.18949 0.92604,-0.019 c 0.50932,-0.0104 1.16417,0.0834 1.45521,0.20844 0.62347,0.26792 0.17343,0.26792 -1.32292,0 z m 23.16964,-0.18282 c -0.0102,-0.31883 0.10047,-0.65328 0.24599,-0.74322 0.31294,-0.19341 0.31294,0.0655 0,0.79375 -0.21924,0.51018 -0.22806,0.50837 -0.24599,-0.0505 z m 27.80443,-0.61093 c 0,-0.3638 0.06,-0.51263 0.13345,-0.33073 0.0734,0.1819 0.0734,0.47956 0,0.66146 -0.0734,0.1819 -0.13345,0.0331 -0.13345,-0.33073 z m -27.27121,-0.79375 c -0.008,-0.21828 0.10087,-0.57547 0.24193,-0.79375 0.31256,-0.48365 0.31256,-0.0659 0,0.66146 -0.14993,0.34892 -0.23234,0.39398 -0.24193,0.13229 z m 27.81018,-1.71979 c 0.005,-0.43656 0.0647,-0.58312 0.13177,-0.32569 0.0671,0.25743 0.0627,0.61462 -0.01,0.79375 -0.0725,0.17913 -0.12736,-0.0315 -0.12197,-0.46806 z m -27.03908,-0.23362 c 0,-0.28395 0.78724,-1.75075 0.93963,-1.75075 0.0728,0 -0.0645,0.38695 -0.30503,0.85989 -0.49113,0.96571 -0.6346,1.16712 -0.6346,0.89086 z m 27.29386,-1.75075 c 0,-0.36381 0.06,-0.51263 0.13345,-0.33073 0.0734,0.1819 0.0734,0.47955 0,0.66146 -0.0734,0.1819 -0.13345,0.0331 -0.13345,-0.33073 z m -26.2056,-0.39688 c 0.27107,-0.70062 1.44982,-2.5097 1.63643,-2.5115 0.11613,-10e-4 -0.17105,0.56351 -0.63819,1.25473 -0.93171,1.37867 -1.15338,1.65774 -0.99824,1.25677 z m 26.50047,-1.45521 c 0,-0.65484 0.0516,-0.92273 0.11466,-0.59531 0.0631,0.32742 0.0631,0.8632 0,1.19063 -0.0631,0.32742 -0.11466,0.0595 -0.11466,-0.59532 z m -24.35233,-1.85208 c 0.18176,-0.29104 0.43935,-0.52917 0.57242,-0.52917 0.13307,0 0.0264,0.23813 -0.23695,0.52917 -0.26338,0.29104 -0.52097,0.52917 -0.57241,0.52917 -0.0514,0 0.0552,-0.23813 0.23694,-0.52917 z m 2.50593,-2.76688 c 0.26146,-0.35762 0.65377,-0.72241 0.87181,-0.81066 0.21803,-0.0882 0.0469,0.20435 -0.38023,0.65022 -0.93706,0.97807 -1.13708,1.04335 -0.49158,0.16044 z m 1.79829,-1.46645 c 0.26339,-0.29105 0.53842,-0.52917 0.61119,-0.52917 0.0728,0 -0.0832,0.23812 -0.3466,0.52917 -0.26339,0.29104 -0.53842,0.52916 -0.61118,0.52916 -0.0728,0 0.0832,-0.23812 0.34659,-0.52916 z m 1.0405,-0.76489 c 0.18877,-0.30543 1.20846,-0.92145 1.20846,-0.73006 0,0.0611 -0.31231,0.31581 -0.69403,0.56592 -0.38172,0.25011 -0.61322,0.32398 -0.51443,0.16414 z m 19.01483,-1.0872 c 0,-0.80036 0.0496,-1.12778 0.11022,-0.7276 0.0606,0.40018 0.0606,1.05502 0,1.45521 -0.0606,0.40018 -0.11022,0.0728 -0.11022,-0.72761 z m -16.21887,-0.80205 c 0,-0.14095 0.1786,-0.25628 0.39688,-0.25628 0.21828,0 0.39687,0.0468 0.39687,0.10398 0,0.0572 -0.17859,0.17252 -0.39687,0.25628 -0.21828,0.0838 -0.39688,0.037 -0.39688,-0.10398 z m 15.89589,-1.20437 c 0.0127,-0.30822 0.0754,-0.37092 0.15985,-0.15985 0.0764,0.19099 0.067,0.4192 -0.0209,0.50712 -0.0879,0.0879 -0.15045,-0.0684 -0.13896,-0.34727 z m -13.31132,-0.15481 c 0.15375,-0.15375 0.43572,-0.22749 0.6266,-0.16386 0.19816,0.0661 0.0782,0.18598 -0.27954,0.27954 -0.4401,0.11509 -0.5434,0.0807 -0.34706,-0.11568 z m 1.1196,-0.4929 c 0,-0.14096 0.17859,-0.25628 0.39687,-0.25628 0.21829,0 0.39688,0.0468 0.39688,0.10398 0,0.0572 -0.17859,0.17252 -0.39688,0.25628 -0.21828,0.0838 -0.39687,0.037 -0.39687,-0.10398 z m 1.51694,-0.5537 c 0.17948,-0.18082 0.39297,-0.26211 0.47444,-0.18065 0.0815,0.0815 -0.0654,0.2294 -0.32632,0.32876 -0.37709,0.14359 -0.40748,0.1132 -0.14812,-0.14811 z m 2.4022,-0.94166 c 0.191,-0.0764 0.4192,-0.067 0.50712,0.0209 0.0879,0.0879 -0.0684,0.15045 -0.34727,0.13896 -0.30822,-0.0127 -0.37092,-0.0754 -0.15985,-0.15985 z m 1.83555,-0.52365 c 0.1819,-0.0734 0.47955,-0.0734 0.66146,0 0.1819,0.0734 0.0331,0.13345 -0.33073,0.13345 -0.36381,0 -0.51263,-0.06 -0.33073,-0.13345 z m 3.50573,-0.35394 -1.45521,-0.17833 1.37345,-0.0431 c 0.75539,-0.0237 1.44703,0.0759 1.53696,0.22146 0.0899,0.14552 0.12673,0.24518 0.0818,0.22146 -0.045,-0.0237 -0.7366,-0.12338 -1.53696,-0.22146 z"
         id="path117653" /></g></g></svg>
